<svg width="60" height="32" viewBox="0 0 60 32" fill="none" xmlns="http://www.w3.org/2000/svg">
<path d="M22.1912 20.7393C22.1912 26.7165 17.3457 31.562 11.3686 31.562C5.39137 31.562 0.545898 26.7165 0.545898 20.7393C0.545898 14.7621 5.39137 9.91664 11.3686 9.91664C17.3457 9.91664 22.1912 14.7621 22.1912 20.7393ZM7.66288 20.7393C7.66288 22.7859 9.32197 24.445 11.3686 24.445C13.4151 24.445 15.0742 22.7859 15.0742 20.7393C15.0742 18.6927 13.4151 17.0336 11.3686 17.0336C9.32197 17.0336 7.66288 18.6927 7.66288 20.7393Z" fill="#262626"/>
<path d="M15.4737 9.91664H22.9376V31.562H15.4737V9.91664Z" fill="#262626"/>
<path d="M26.6695 4.69191L34.1334 0.959961V31.562H26.6695V4.69191Z" fill="#262626"/>
<path d="M53.8775 5.42295C54.1747 5.13725 54.6472 5.14654 54.9329 5.4437L59.0713 9.74813C59.357 10.0453 59.3477 10.5178 59.0505 10.8035L42.467 26.7473C42.1698 27.033 41.6973 27.0237 41.4116 26.7266L37.2732 22.4221C36.9875 22.125 36.9968 21.6525 37.294 21.3668L53.8775 5.42295Z" fill="#262626"/>
<path d="M58.9385 21.5913C59.2297 21.8831 59.2292 22.3557 58.9374 22.6469L54.7106 26.8645C54.4188 27.1557 53.9462 27.1552 53.655 26.8634L37.4058 10.5789C37.1146 10.2871 37.1152 9.81456 37.407 9.52339L41.6337 5.30574C41.9255 5.01458 42.3981 5.01509 42.6893 5.30689L58.9385 21.5913Z" fill="#262626"/>
</svg>
