<svg width="34" height="35" viewBox="0 0 34 35" fill="none" xmlns="http://www.w3.org/2000/svg">
<g clip-path="url(#clip0_23_2020)">
<path d="M33.7806 22.218C33.5532 22.0637 33.2432 22.1233 33.0881 22.3501C33.0463 22.4113 32.043 23.8476 30.2005 23.8476C28.3579 23.8476 27.3546 22.4113 27.3139 22.3518C27.1303 22.061 26.6686 22.0613 26.4853 22.3522C26.4753 22.3671 25.4605 23.8477 23.6015 23.8477C22.0433 23.8477 21.0854 22.8206 20.8022 22.4676V14.7347H33.5011C33.7767 14.7347 34.0001 14.5114 34.0001 14.2357C34.0001 13.9601 33.7767 13.7367 33.5011 13.7367H29.488V10.0996C29.488 6.8 26.8355 4.08996 23.575 4.05842C21.971 4.04228 20.4583 4.65733 19.3162 5.78843C18.7632 6.33608 18.3317 6.97212 18.0324 7.66401C17.11 5.56338 15.0355 4.08172 12.6298 4.05842C12.61 4.05822 12.5903 4.05815 12.5705 4.05815C10.9883 4.05815 9.49898 4.67128 8.37094 5.78843C7.22862 6.91979 6.59942 8.42609 6.59942 10.0298V13.7367H0.536925C0.261273 13.7367 0.0378821 13.9601 0.0378821 14.2358C0.0378821 14.5114 0.261273 14.7348 0.536925 14.7348H6.59942V16.7055C6.59942 16.9811 6.82281 17.2045 7.09846 17.2045C7.37411 17.2045 7.5975 16.9811 7.5975 16.7055V10.0298C7.5975 8.69443 8.12158 7.44002 9.07332 6.49752C10.0247 5.55534 11.2833 5.04056 12.6203 5.05643C15.3356 5.08266 17.5447 7.34506 17.5447 10.0996V13.7367H16.2833V10.0298C16.2833 8.01769 14.6469 6.35262 12.6356 6.31815C12.6144 6.31782 12.5934 6.31762 12.5722 6.31762C11.609 6.31762 10.6964 6.69434 9.99636 7.38251C9.27346 8.09313 8.85889 9.07879 8.85889 10.0868V23.4804C8.19363 23.1463 7.76724 22.6746 7.59744 22.4618V18.7015C7.59744 18.4259 7.37405 18.2025 7.09839 18.2025C6.82274 18.2025 6.59935 18.4259 6.59935 18.7015V22.4669C6.31513 22.8213 5.35742 23.8476 3.7998 23.8476C1.95722 23.8476 0.953956 22.4113 0.913183 22.3518C0.759386 22.1231 0.449335 22.0624 0.220632 22.2161C-0.00807102 22.3699 -0.0688328 22.6799 0.0849641 22.9087C0.138089 22.9878 1.41468 24.8457 3.79973 24.8457C5.43034 24.8457 6.54277 23.9774 7.10039 23.4027C7.658 23.9774 8.7705 24.8457 10.401 24.8457C12.0312 24.8457 13.1424 23.9778 13.6996 23.403C14.2573 23.9777 15.3697 24.8457 16.9999 24.8457C18.6305 24.8457 19.7429 23.9774 20.3006 23.4027C20.8582 23.9774 21.9707 24.8457 23.6012 24.8457C25.2314 24.8457 26.3426 23.9778 26.8997 23.403C27.4575 23.9777 28.5699 24.8457 30.2001 24.8457C32.5852 24.8457 33.8617 22.9878 33.9148 22.9087C34.0685 22.6806 34.008 22.3723 33.7806 22.218ZM9.85698 18.2025H17.5447V19.5997H9.85698V18.2025ZM17.5447 17.2045H9.85698V14.7347H17.5447V17.2045ZM10.6961 8.09432C11.2191 7.5802 11.9016 7.30389 12.6185 7.31611C14.089 7.34134 15.2853 8.5587 15.2853 10.0299V13.7368H9.85704V10.0868C9.85698 9.34469 10.1628 8.61847 10.6961 8.09432ZM14.1136 22.3518C13.9302 22.0626 13.4708 22.0624 13.2861 22.3506C13.2444 22.4117 12.2434 23.8476 10.4012 23.8476C10.2106 23.8476 10.0295 23.8315 9.85698 23.8039V20.5978H17.5447V23.8038C17.3721 23.8315 17.1909 23.8476 17.0001 23.8476C15.1576 23.8476 14.1543 22.4113 14.1136 22.3518ZM18.5427 23.4802V10.0298C18.5427 8.69443 19.0668 7.44002 20.0185 6.49752C20.9699 5.55534 22.2287 5.04056 23.5654 5.05643C26.2808 5.08266 28.4899 7.34506 28.4899 10.0996V13.7367H27.2285V12.6273C27.2285 12.3517 27.0051 12.1283 26.7295 12.1283C26.4538 12.1283 26.2304 12.3517 26.2304 12.6273V13.7367H20.8021V10.0867C20.8021 9.34462 21.108 8.6184 21.6412 8.09419C22.1642 7.58007 22.8455 7.30375 23.5636 7.31597C25.0341 7.34121 26.2304 8.55857 26.2304 10.0297V10.6312C26.2304 10.9069 26.4538 11.1303 26.7295 11.1303C27.0051 11.1303 27.2285 10.9069 27.2285 10.6312V10.0297C27.2285 8.01762 25.5921 6.35255 23.5808 6.31809C23.5596 6.31775 23.5386 6.31756 23.5174 6.31756C22.5543 6.31756 21.6417 6.69428 20.9416 7.38245C20.2187 8.09306 19.8041 9.07873 19.8041 10.0867V22.4612C19.6338 22.6748 19.2074 23.1463 18.5427 23.4802Z" fill="#616161"/>
<path d="M13.702 29.9434C11.8594 29.9434 10.8561 28.5071 10.8153 28.4476C10.6321 28.1586 10.1731 28.1583 9.98819 28.446C9.94642 28.5072 8.94309 29.9435 7.10058 29.9435C5.25807 29.9435 4.25474 28.5072 4.21396 28.4477C4.06017 28.2189 3.75012 28.1582 3.52141 28.312C3.29271 28.4658 3.23195 28.7758 3.38575 29.0045C3.43887 29.0836 4.7154 30.9415 7.10051 30.9415C8.73112 30.9415 9.84355 30.0732 10.4012 29.4985C10.9588 30.0732 12.0713 30.9415 13.7019 30.9415C13.9775 30.9415 14.2009 30.7181 14.2009 30.4425C14.2009 30.1668 13.9776 29.9434 13.702 29.9434Z" fill="#616161"/>
<path d="M30.4793 28.3135C30.2517 28.1595 29.9419 28.2194 29.7869 28.4464C29.7452 28.5075 28.7443 29.9434 26.902 29.9434C25.0594 29.9434 24.0562 28.5071 24.0154 28.4476C23.832 28.157 23.3706 28.1571 23.1872 28.4476C23.1771 28.4625 22.1599 29.9434 20.3006 29.9434C18.458 29.9434 17.4547 28.5071 17.414 28.4476C17.2306 28.1584 16.7712 28.1582 16.5865 28.4464C16.5826 28.4522 16.1799 29.0347 15.437 29.4683C15.199 29.6073 15.1186 29.9129 15.2576 30.1509C15.3966 30.3888 15.7021 30.4691 15.9402 30.3303C16.3986 30.0627 16.7531 29.7517 16.9995 29.498C17.557 30.0727 18.6696 30.9415 20.3006 30.9415C21.9312 30.9415 23.0436 30.0731 23.6012 29.4985C24.1588 30.0731 25.2713 30.9415 26.9019 30.9415C29.2873 30.9415 30.5615 29.0832 30.6145 29.0041C30.7678 28.7757 30.707 28.4675 30.4793 28.3135Z" fill="#616161"/>
</g>
<defs>
<clipPath id="clip0_23_2020">
<rect width="34" height="34" fill="white" transform="translate(0 0.5)"/>
</clipPath>
</defs>
</svg>
