<svg width="35" height="35" viewBox="0 0 35 35" fill="none" xmlns="http://www.w3.org/2000/svg">
<g clip-path="url(#clip0_23_2027)">
<path d="M34.002 21.7168H13.7914L12.7544 15.4099C13.5504 15.4847 14.2292 16.0872 14.3648 16.9121C14.4763 17.5899 15.4461 17.3418 15.3474 16.75C14.9497 14.3323 18.5332 13.9055 18.9048 16.1657C19.0025 16.7597 19.999 16.6845 19.8875 16.0041C19.5222 13.7823 22.8957 13.1152 23.4179 15.2879C23.4582 16.0878 24.5711 15.8784 24.3968 15.0991C23.8444 11.9924 22.1328 9.27437 19.5641 7.43109C16.9713 5.57055 13.8134 4.82343 10.6643 5.32224C10.6614 5.32264 10.6585 5.32311 10.6568 5.32337L10.6411 5.32576C10.6406 5.32583 10.6401 5.32596 10.6396 5.32603C10.6284 5.32782 10.6172 5.32928 10.606 5.33114C10.6054 5.33121 10.6048 5.33127 10.6042 5.3314C10.6009 5.33187 10.5971 5.33247 10.5941 5.33293C10.594 5.33293 10.5939 5.33293 10.5938 5.333C10.5935 5.33306 10.5933 5.33306 10.5931 5.33313C4.04338 6.4099 -0.409023 12.6145 0.667876 19.1641C0.772711 19.8016 1.83686 19.6539 1.72758 18.9898C1.56804 18.0194 2.24332 17.0783 3.21379 16.9188C4.16036 16.763 5.13077 17.4673 5.28486 18.405C5.38784 19.0309 6.37903 18.921 6.26762 18.2434C5.90677 16.0487 9.19795 15.3158 9.78533 17.4767C9.97933 18.1913 10.8922 18.2629 10.795 17.4064C10.7148 16.7015 11.156 15.9068 11.7756 15.5943L12.7822 21.7167H1.00462C0.729622 21.7167 0.506673 21.9397 0.506673 22.2147C0.506673 22.4897 0.729622 22.7126 1.00462 22.7126H12.9459L13.4611 25.8461C12.4612 25.1556 11.4138 24.5292 10.2645 24.1388C8.60572 23.5753 6.71757 23.5717 4.94799 24.1286C3.17821 24.6854 1.63284 25.7694 0.59657 27.1809C0.43384 27.4026 0.481643 27.7142 0.703264 27.877C0.925017 28.0397 1.2366 27.9919 1.39933 27.7703C2.31111 26.5283 3.67755 25.5723 5.24682 25.0786C6.81603 24.5848 8.48429 24.5859 9.94415 25.0818C11.4906 25.6072 12.8998 26.647 14.2626 27.6527C16.1834 29.0701 18.1697 30.5359 20.6277 30.6571C20.7367 30.6624 20.8451 30.665 20.9531 30.665C22.3182 30.665 23.605 30.253 24.7159 29.8601C24.9752 29.7684 25.111 29.484 25.0193 29.2247C24.9276 28.9654 24.6431 28.8294 24.3839 28.9213C23.2746 29.3136 21.9822 29.7266 20.6768 29.6624C18.519 29.556 16.7388 28.2422 14.8539 26.8513C14.7677 26.7877 14.6812 26.7239 14.5945 26.6601C14.5955 26.6285 14.5936 26.5963 14.5883 26.5639L13.9551 22.7126H34.002C34.277 22.7126 34.5 22.4897 34.5 22.2147C34.5 21.9397 34.277 21.7168 34.002 21.7168ZM13.9574 14.767C12.8324 14.1326 11.3807 14.3604 10.5067 15.3288C10.2367 13.1701 10.1166 11.1561 10.1651 9.52168C10.2371 7.09302 10.6627 6.37212 10.8059 6.30838C10.8061 6.30838 10.8061 6.30838 10.8063 6.30832C10.9675 6.32412 11.6015 6.87326 12.4468 9.15074C13.0178 10.6892 13.5502 12.6433 13.9863 14.7828C13.9767 14.7773 13.967 14.7723 13.9574 14.767ZM14.9787 14.667C14.5149 12.3729 13.9421 10.284 13.3248 8.65598C12.9556 7.68232 12.5849 6.91236 12.2218 6.36435C13.362 6.61904 14.5081 7.36928 15.5531 8.56615C16.7705 9.96041 17.7405 11.8296 18.3608 13.9468C17.8413 13.69 17.2418 13.6029 16.672 13.6966C15.9828 13.81 15.3942 14.1682 14.9787 14.667ZM22.8234 13.1645C21.642 12.6257 20.2018 12.9945 19.4224 14.0432C18.4781 10.5586 16.6743 7.78736 14.566 6.35028C16.1402 6.64201 17.6441 7.27912 18.9835 8.24023C20.7368 9.49851 22.0549 11.2012 22.8234 13.1645ZM3.50778 15.8987C2.79412 15.8987 2.01101 16.2252 1.51346 16.7317C1.67925 12.8897 3.85575 9.42475 7.1537 7.57503C6.61007 8.29434 6.14977 9.16595 5.79576 10.1687C5.58144 10.7758 6.52051 11.1074 6.73489 10.5003C7.35932 8.73174 8.33046 7.43521 9.4934 6.77074C9.31958 7.40487 9.21495 8.25178 9.17518 9.32689C9.11051 11.0736 9.23739 13.2474 9.53503 15.5819C8.40522 14.8697 6.90699 15.0637 5.99766 16.045C5.94813 14.9355 6.00364 13.8542 6.16418 12.814C6.26237 12.1777 5.27829 12.0256 5.17996 12.662C4.99705 13.8467 4.94274 15.0797 5.01617 16.3435C4.57512 16.0604 4.05453 15.8987 3.50778 15.8987Z" fill="#616161"/>
<path d="M28.9813 8.77994C30.5018 8.77994 31.7389 7.5429 31.7389 6.02229C31.7389 4.50169 30.5019 3.26465 28.9813 3.26465C27.4607 3.26465 26.2236 4.50169 26.2236 6.02229C26.2236 7.5429 27.4607 8.77994 28.9813 8.77994ZM28.9813 4.26061C29.9527 4.26061 30.743 5.05089 30.743 6.02236C30.743 6.99383 29.9527 7.78411 28.9813 7.78411C28.0098 7.78411 27.2195 6.99383 27.2195 6.02236C27.2195 5.05089 28.0099 4.26061 28.9813 4.26061Z" fill="#616161"/>
<path d="M28.9813 2.67833C29.2563 2.67833 29.4793 2.45538 29.4793 2.18038V1.00137C29.4793 0.726367 29.2563 0.503418 28.9813 0.503418C28.7063 0.503418 28.4834 0.726367 28.4834 1.00137V2.18038C28.4834 2.45538 28.7063 2.67833 28.9813 2.67833Z" fill="#616161"/>
<path d="M28.4834 9.86416V11.0432C28.4834 11.3182 28.7063 11.5411 28.9813 11.5411C29.2563 11.5411 29.4793 11.3182 29.4793 11.0432V9.86416C29.4793 9.58916 29.2563 9.36621 28.9813 9.36621C28.7063 9.36621 28.4834 9.58916 28.4834 9.86416Z" fill="#616161"/>
<path d="M31.6976 3.8037C31.825 3.8037 31.9525 3.7551 32.0497 3.65784L32.8834 2.82414C33.0779 2.62967 33.0779 2.31437 32.8834 2.11997C32.689 1.9255 32.3737 1.9255 32.1793 2.11997L31.3456 2.95367C31.1511 3.14814 31.1511 3.46344 31.3456 3.65784C31.4428 3.7551 31.5702 3.8037 31.6976 3.8037Z" fill="#616161"/>
<path d="M25.9127 8.38657L25.079 9.22027C24.8845 9.41474 24.8845 9.73004 25.079 9.92444C25.1762 10.0216 25.3036 10.0703 25.431 10.0703C25.5584 10.0703 25.6859 10.0217 25.7831 9.92444L26.6168 9.09074C26.8113 8.89627 26.8113 8.58097 26.6168 8.38657C26.4224 8.19211 26.1071 8.19211 25.9127 8.38657Z" fill="#616161"/>
<path d="M32.3252 6.02236C32.3252 6.29736 32.5481 6.52031 32.8231 6.52031H34.0022C34.2772 6.52031 34.5001 6.29736 34.5001 6.02236C34.5001 5.74736 34.2772 5.52441 34.0022 5.52441H32.8231C32.5481 5.52441 32.3252 5.74736 32.3252 6.02236Z" fill="#616161"/>
<path d="M23.9604 6.52031H25.1394C25.4144 6.52031 25.6373 6.29736 25.6373 6.02236C25.6373 5.74736 25.4144 5.52441 25.1394 5.52441H23.9604C23.6854 5.52441 23.4624 5.74736 23.4624 6.02236C23.4624 6.29736 23.6854 6.52031 23.9604 6.52031Z" fill="#616161"/>
<path d="M31.3456 8.38657C31.1511 8.58104 31.1511 8.89627 31.3456 9.09074L32.1793 9.92444C32.2765 10.0217 32.4039 10.0703 32.5313 10.0703C32.6587 10.0703 32.7862 10.0217 32.8834 9.92444C33.0779 9.72997 33.0779 9.41474 32.8834 9.22027L32.0497 8.38657C31.8553 8.19211 31.54 8.19211 31.3456 8.38657Z" fill="#616161"/>
<path d="M25.9127 3.65786C26.0099 3.75513 26.1373 3.80373 26.2647 3.80373C26.3921 3.80373 26.5196 3.75513 26.6168 3.65786C26.8113 3.4634 26.8113 3.1481 26.6168 2.9537L25.7831 2.12C25.5887 1.92546 25.2734 1.92553 25.079 2.12C24.8845 2.31446 24.8845 2.62976 25.079 2.82416L25.9127 3.65786Z" fill="#616161"/>
<path d="M2.78131 28.7632C2.14048 28.7632 2.13942 29.7591 2.78131 29.7591C3.42214 29.7591 3.4232 28.7632 2.78131 28.7632Z" fill="#616161"/>
<path d="M9.6568 31.543C9.01597 31.543 9.01491 32.5389 9.6568 32.5389C10.2976 32.5389 10.2987 31.543 9.6568 31.543Z" fill="#616161"/>
<path d="M11.3892 27.7759C10.7484 27.7759 10.7473 28.7718 11.3892 28.7718C12.0301 28.7718 12.0311 27.7759 11.3892 27.7759Z" fill="#616161"/>
<path d="M24.586 33.501C23.9452 33.501 23.9441 34.4969 24.586 34.4969C25.2268 34.4969 25.2279 33.501 24.586 33.501Z" fill="#616161"/>
<path d="M30.4913 30.7319C29.8504 30.7319 29.8494 31.7278 30.4913 31.7278C31.1321 31.7278 31.1332 30.7319 30.4913 30.7319Z" fill="#616161"/>
<path d="M19.8158 26.147C19.5408 26.147 19.3179 26.3699 19.3179 26.6449C19.3179 26.9199 19.5408 27.1429 19.8158 27.1429H23.6478C23.9228 27.1429 24.1458 26.9199 24.1458 26.6449C24.1458 26.3699 23.9228 26.147 23.6478 26.147H19.8158Z" fill="#616161"/>
<path d="M31.7387 24.6088C31.7387 24.3338 31.5157 24.1108 31.2407 24.1108H22.6762C22.4012 24.1108 22.1782 24.3338 22.1782 24.6088C22.1782 24.8838 22.4012 25.1067 22.6762 25.1067H31.2407C31.5157 25.1067 31.7387 24.8839 31.7387 24.6088Z" fill="#616161"/>
<path d="M34.3114 29.2801C32.412 27.686 30.1836 27.2305 27.4988 27.8875C27.2317 27.9529 27.0681 28.2224 27.1335 28.4896C27.1989 28.7567 27.4686 28.9203 27.7356 28.8549C30.0904 28.2785 32.032 28.6672 33.6713 30.043C33.7646 30.1212 33.8782 30.1595 33.9911 30.1595C34.1332 30.1595 34.2743 30.099 34.3728 29.9816C34.5495 29.771 34.5221 29.4569 34.3114 29.2801Z" fill="#616161"/>
</g>
<defs>
<clipPath id="clip0_23_2027">
<rect width="34" height="34" fill="white" transform="translate(0.5 0.5)"/>
</clipPath>
</defs>
</svg>
