<svg width="34" height="35" viewBox="0 0 34 35" fill="none" xmlns="http://www.w3.org/2000/svg">
<g clip-path="url(#clip0_23_2166)">
<path d="M33.9871 16.7585C33.923 16.1561 33.6284 15.6156 33.1382 15.2206L30.0335 12.9228V7.29986H25.5002V9.56818L17.0338 3.30322L0.885211 14.667C0.405253 15.0359 0.0975576 15.5702 0.0193589 16.1703C-0.0588398 16.771 0.101524 17.3654 0.470418 17.8453C1.23314 18.8359 2.65772 19.0217 3.62613 18.2771L3.96726 18.0408V19.3991C3.29974 19.7187 2.83395 20.3953 2.83395 21.1835C2.83395 21.9717 3.29974 22.6483 3.96726 22.9679V25.0657C3.29974 25.3853 2.83395 26.0619 2.83395 26.8501C2.83395 27.6383 3.29974 28.3149 3.96726 28.6345V30.7323C3.29974 31.0519 2.83395 31.7285 2.83395 32.5167C2.83395 33.6103 3.7236 34.5 4.81725 34.5H13.0338H14.1671H19.8337H20.967H29.1835C30.2772 34.5 31.1668 33.6103 31.1668 32.5167C31.1668 31.5205 30.4256 30.7011 29.4668 30.5623V28.8045C30.4256 28.6657 31.1668 27.8463 31.1668 26.8501C31.1668 25.8539 30.4256 25.0345 29.4668 24.8957V23.1379C30.4256 22.9991 31.1668 22.1797 31.1668 21.1835C31.1668 20.1873 30.4256 19.368 29.4668 19.2291V18.1485L30.3208 18.7713C30.7367 19.1033 31.2348 19.2643 31.7306 19.2643C32.3925 19.2643 33.0492 18.9764 33.4969 18.4228C33.8771 17.9519 34.0517 17.3609 33.9871 16.7585ZM26.6336 8.43374H28.9002V12.0841L26.6336 10.4068V8.43374ZM13.0338 28.8334V30.5334H5.10057V28.8334H13.0338ZM5.10057 24.8668V23.1668H13.0338V24.8668H5.10057ZM4.81725 26.0001H13.0338V27.7001H4.81725C4.34862 27.7001 3.96726 27.3187 3.96726 26.8501C3.96726 26.3815 4.34862 26.0001 4.81725 26.0001ZM13.0338 33.3667H4.81725C4.34862 33.3667 3.96726 32.9853 3.96726 32.5167C3.96726 32.048 4.34862 31.6667 4.81725 31.6667H13.0338V33.3667ZM19.8337 33.3667H14.1671V31.1V30.5334V28.8334V28.2667V25.4335V24.8668V23.1668H19.8337V24.8668V25.4335V28.2667V28.8334V30.5334V31.1V33.3667ZM20.967 24.8668V23.1668H28.3335V24.8668H20.967ZM20.967 30.5334V28.8334H28.3335V30.5334H20.967ZM30.0335 32.5167C30.0335 32.9853 29.6521 33.3667 29.1835 33.3667H20.967V31.6667H29.1835C29.6521 31.6667 30.0335 32.048 30.0335 32.5167ZM30.0335 26.8501C30.0335 27.3187 29.6521 27.7001 29.1835 27.7001H20.967V26.0001H29.1835C29.6521 26.0001 30.0335 26.3815 30.0335 26.8501ZM30.0335 21.1835C30.0335 21.6522 29.6521 22.0335 29.1835 22.0335H20.967H13.0338H4.81725C4.34862 22.0335 3.96726 21.6522 3.96726 21.1835C3.96726 20.7149 4.34862 20.3335 4.81725 20.3335H13.6004H20.4003H29.1835C29.6521 20.3335 30.0335 20.7149 30.0335 21.1835ZM19.267 19.2002H17.567V17.5003H19.267V19.2002ZM19.267 16.3669H17.567V14.667H19.267V16.3669ZM16.4337 16.3669H14.7337V14.667H16.4337V16.3669ZM14.7337 17.5003H16.4337V19.2002H14.7337V17.5003ZM22.6669 17.5003H28.3335V19.2002H20.4003V13.5337H13.6004V19.2002H5.10057V17.5003H11.3338C11.6472 17.5003 11.9005 17.247 11.9005 16.9336C11.9005 16.6202 11.6472 16.3669 11.3338 16.3669H6.38122L8.83315 14.667H11.9005V13.5337H10.468L12.9199 11.8337H20.8128L22.1706 12.8242L23.1429 13.5337H22.1009V14.667H24.6961L27.0262 16.3669H22.6675C22.3542 16.3669 22.1009 16.6202 22.1009 16.9336C22.1009 17.247 22.3536 17.5003 22.6669 17.5003ZM14.5541 10.7004L16.9669 9.02759L19.2596 10.7004H14.5541ZM32.6146 17.711C32.2225 18.1961 31.5068 18.2737 31.0206 17.8805L29.434 16.7228L28.9489 16.3669H28.9466L26.6171 14.667H26.6182L21.1817 10.7004L16.9828 7.63645L12.5646 10.7004L6.84361 14.667H6.84475L4.35769 16.3913L4.35429 16.3919L4.15369 16.533L2.95804 17.362C2.46165 17.7428 1.7488 17.6499 1.36857 17.1552C1.18384 16.9149 1.10394 16.6174 1.14304 16.3171C1.18214 16.0167 1.33627 15.7498 1.55613 15.5793L17.0174 4.70117L25.5002 10.978L26.7452 11.8994L32.4458 16.1176C32.6809 16.3074 32.8288 16.5783 32.86 16.8792C32.8923 17.1795 32.805 17.4753 32.6146 17.711Z" fill="#616161"/>
<path d="M15.3005 28.8335C15.6135 28.8335 15.8672 28.5798 15.8672 28.2669C15.8672 27.9539 15.6135 27.7002 15.3005 27.7002C14.9876 27.7002 14.7339 27.9539 14.7339 28.2669C14.7339 28.5798 14.9876 28.8335 15.3005 28.8335Z" fill="#616161"/>
<path d="M26.6336 6.73365C26.7809 6.73365 26.9282 6.67132 27.0359 6.56932C27.1379 6.46166 27.2002 6.31433 27.2002 6.167C27.2002 6.01967 27.1379 5.87177 27.0359 5.76467C26.8262 5.55501 26.4409 5.55501 26.2312 5.76467C26.1287 5.87177 26.0669 6.01967 26.0669 6.167C26.0669 6.31433 26.1287 6.46166 26.2312 6.56932C26.3383 6.67075 26.4862 6.73365 26.6336 6.73365Z" fill="#616161"/>
<path d="M28.9002 6.73393C29.2135 6.73393 29.4668 6.48063 29.4668 6.16727V3.90064C29.4668 3.58728 29.2135 3.33398 28.9002 3.33398C28.5868 3.33398 28.3335 3.58728 28.3335 3.90064V6.16727C28.3335 6.48007 28.5868 6.73393 28.9002 6.73393Z" fill="#616161"/>
<path d="M28.9002 2.76712C29.2135 2.76712 29.4668 2.51382 29.4668 2.20046V1.06715C29.4668 0.753784 29.2135 0.500488 28.9002 0.500488C28.5868 0.500488 28.3335 0.753784 28.3335 1.06715V2.20046C28.3335 2.51325 28.5868 2.76712 28.9002 2.76712Z" fill="#616161"/>
<path d="M26.6336 5.03372C26.9469 5.03372 27.2002 4.78042 27.2002 4.46706V3.33375C27.2002 3.02039 26.9469 2.76709 26.6336 2.76709C26.3202 2.76709 26.0669 3.02039 26.0669 3.33375V4.46706C26.0669 4.77986 26.3202 5.03372 26.6336 5.03372Z" fill="#616161"/>
<path d="M26.6336 2.20046C26.9469 2.20046 27.2002 1.94716 27.2002 1.6338V1.06715C27.2002 0.753784 26.9469 0.500488 26.6336 0.500488C26.3202 0.500488 26.0669 0.753784 26.0669 1.06715V1.6338C26.0669 1.9466 26.3202 2.20046 26.6336 2.20046Z" fill="#616161"/>
</g>
<defs>
<clipPath id="clip0_23_2166">
<rect width="34" height="34" fill="white" transform="translate(0 0.5)"/>
</clipPath>
</defs>
</svg>
