<svg width="34" height="35" viewBox="0 0 34 35" fill="none" xmlns="http://www.w3.org/2000/svg">
<g clip-path="url(#clip0_23_1985)">
<path d="M7.32309 31.7991L6.89715 30.8259C11.1383 28.9694 15.5519 27.5351 20.0741 26.5437C20.2884 26.4968 20.5042 26.4556 20.719 26.4107V21.75H20.1877C20.0827 21.75 19.98 21.7188 19.8926 21.6605C19.8053 21.6021 19.7372 21.5191 19.697 21.4221C19.6568 21.325 19.6462 21.2182 19.6668 21.1151C19.6873 21.0121 19.7379 20.9174 19.8121 20.8431L24.0621 16.5931C24.1115 16.5438 24.17 16.5047 24.2345 16.478C24.2989 16.4512 24.368 16.4375 24.4378 16.4375C24.5075 16.4375 24.5766 16.4512 24.641 16.478C24.7055 16.5047 24.7641 16.5438 24.8134 16.5931L29.0634 20.8431C29.1377 20.9174 29.1883 21.0121 29.2088 21.1151C29.2293 21.2182 29.2188 21.325 29.1785 21.4221C29.1383 21.5191 29.0702 21.6021 28.9829 21.6605C28.8955 21.7188 28.7928 21.75 28.6877 21.75H28.1565V25.2659C29.9191 25.0907 31.6858 24.9813 33.4565 24.9375L33.4814 26C29.0477 26.105 24.6342 26.6345 20.3014 27.5813C15.8474 28.5581 11.5003 29.9708 7.32309 31.7991ZM23.9065 25.8207C24.2604 25.7636 24.6141 25.706 24.969 25.6543V23.875H23.9065V25.8207ZM21.7815 26.1929C22.1348 26.1248 22.4895 26.0631 22.844 26.0003V23.3437C22.844 23.274 22.8577 23.2049 22.8844 23.1404C22.9111 23.076 22.9502 23.0174 22.9996 22.968C23.0489 22.9187 23.1075 22.8796 23.1719 22.8529C23.2364 22.8262 23.3055 22.8125 23.3752 22.8125H25.5002C25.57 22.8125 25.6391 22.8262 25.7036 22.8529C25.768 22.8796 25.8266 22.9187 25.8759 22.968C25.9253 23.0174 25.9644 23.076 25.9911 23.1404C26.0178 23.2049 26.0315 23.274 26.0315 23.3437V25.5119C26.3854 25.4659 26.7394 25.4212 27.094 25.3805V21.75H21.7815V26.1929ZM27.4053 20.6875L24.4377 17.72L21.4702 20.6875H27.4053Z" fill="#616161"/>
<path d="M11.2584 32.8736L10.8922 31.8764C13.8887 30.7775 16.9564 29.8833 20.0741 29.1999C24.4734 28.2384 28.9547 27.7006 33.4565 27.5938L33.4814 28.6563C29.0477 28.7613 24.6342 29.2908 20.3014 30.2375C17.2309 30.9108 14.2097 31.7915 11.2584 32.8736Z" fill="#616161"/>
<path d="M16.0838 34.0169L15.7917 32.9949C17.2021 32.5923 18.643 32.2291 20.0741 31.9158C24.4734 30.9543 28.9547 30.4164 33.4565 30.3096L33.4814 31.3721C29.0477 31.4771 24.6342 32.0066 20.3014 32.9534C18.8918 33.2621 17.4726 33.62 16.0838 34.0169Z" fill="#616161"/>
<path d="M4.7812 8.38593V5.28102H4.24995C4.14143 5.28104 4.0355 5.24781 3.94643 5.18581C3.85736 5.12381 3.78942 5.03601 3.75175 4.93423C3.71408 4.83245 3.7085 4.72157 3.73575 4.61653C3.763 4.51148 3.82178 4.4173 3.90417 4.34666L7.62292 1.15916C7.71908 1.07633 7.84178 1.03076 7.9687 1.03076C8.09562 1.03076 8.21832 1.07633 8.31448 1.15916L12.0332 4.34666C12.1156 4.4173 12.1744 4.51148 12.2017 4.61653C12.2289 4.72157 12.2233 4.83245 12.1857 4.93423C12.148 5.03601 12.08 5.12381 11.991 5.18581C11.9019 5.24781 11.796 5.28104 11.6875 5.28102H11.1562V9.40724C12.9832 9.75944 14.7971 10.1602 16.5981 10.6096C18.301 11.0372 19.8507 11.4671 21.25 11.8832V10.0106C20.7705 9.93238 20.3389 9.67446 20.0428 9.28931C19.7468 8.90416 19.6085 8.42071 19.6562 7.93727C19.6562 7.10823 20.2349 3.0507 21.7812 3.0507C23.3275 3.0507 23.9062 7.10823 23.9062 7.93727C23.9539 8.42071 23.8156 8.90416 23.5196 9.2893C23.2235 9.67445 22.7919 9.93237 22.3125 10.0106V12.2054C23.7335 12.645 24.9765 13.0636 26.0312 13.4406V11.6044C25.5518 11.5261 25.1201 11.2682 24.8241 10.8831C24.528 10.4979 24.3898 10.0145 24.4375 9.53102C24.4375 8.70198 25.0162 4.64445 26.5625 4.64445C28.1087 4.64445 28.6875 8.70198 28.6875 9.53102C28.7351 10.0145 28.5969 10.4979 28.3008 10.8831C28.0048 11.2682 27.5731 11.5261 27.0937 11.6044V13.83C28.2975 14.2809 29.187 14.6501 29.7331 14.8876C30.8986 15.3945 32.0565 15.9346 33.1748 16.4933L32.7001 17.4437C31.5984 16.8933 30.4576 16.3615 29.3092 15.8619C25.1044 14.1136 20.7675 12.7019 16.3393 11.6399C11.1347 10.3344 5.83325 9.45077 0.486576 8.99769L0.575829 7.93935C1.97836 8.05779 3.38015 8.20666 4.7812 8.38593ZM27.625 9.53102C27.625 8.33 26.991 6.1028 26.5625 5.73341C26.1339 6.1028 25.5 8.33 25.5 9.53102C25.5 10.2656 25.8276 10.5935 26.5625 10.5935C27.2973 10.5935 27.625 10.2656 27.625 9.53102ZM22.8437 7.93727C22.8437 6.73625 22.2097 4.50905 21.7812 4.13966C21.3527 4.50905 20.7187 6.73625 20.7187 7.93727C20.7187 8.67189 21.0463 8.99977 21.7812 8.99977C22.5161 8.99977 22.8437 8.67189 22.8437 7.93727ZM7.43745 8.76317C7.79173 8.81783 8.14623 8.87085 8.49995 8.92928V7.40602H7.43745V8.76317ZM5.8437 8.53019C6.02074 8.55463 6.19801 8.57694 6.37495 8.6023V6.87477C6.37493 6.805 6.38866 6.73591 6.41535 6.67145C6.44205 6.60699 6.48118 6.54841 6.53051 6.49908C6.57985 6.44974 6.63842 6.41061 6.70288 6.38392C6.76734 6.35723 6.83643 6.3435 6.9062 6.34352H9.0312C9.10097 6.3435 9.17006 6.35723 9.23452 6.38392C9.29899 6.41061 9.35756 6.44974 9.40689 6.49908C9.45623 6.54841 9.49536 6.60699 9.52205 6.67145C9.54874 6.73591 9.56247 6.805 9.56245 6.87477V9.11442C9.73959 9.14562 9.91676 9.17636 10.0937 9.20849V5.28102H5.8437V8.53019ZM10.2514 4.21852L7.9687 2.26213L5.68599 4.21852H10.2514Z" fill="#616161"/>
<path d="M16.5976 13.6527C17.6497 13.9162 18.7278 14.2062 19.8022 14.5139L19.5096 15.5349C18.4466 15.2309 17.38 14.944 16.339 14.683C11.1344 13.3775 5.833 12.4938 0.486319 12.0408L0.575567 10.9824C5.97938 11.4401 11.3375 12.3331 16.5976 13.6527Z" fill="#616161"/>
<path d="M16.598 16.4535L17.1318 16.5889L16.8683 17.6182L16.3394 17.4838C11.1348 16.1782 5.83336 15.2946 0.486685 14.8415L0.575933 13.7832C5.97975 14.2409 11.3378 15.1339 16.598 16.4535Z" fill="#616161"/>
<path d="M14.9961 19.1078L14.7543 20.1423C10.0593 19.046 5.29098 18.2914 0.486849 17.8845L0.576098 16.8262C5.43161 17.2371 10.2509 17.9996 14.9961 19.1078Z" fill="#616161"/>
</g>
<defs>
<clipPath id="clip0_23_1985">
<rect width="34" height="34" fill="white" transform="matrix(-1 0 0 1 34 0.5)"/>
</clipPath>
</defs>
</svg>
