<svg width="34" height="35" viewBox="0 0 34 35" fill="none" xmlns="http://www.w3.org/2000/svg">
<path d="M31.3425 28.1919C31.3433 28.1694 31.3437 28.1471 31.3437 28.125C31.343 27.5616 31.119 27.0215 30.7206 26.6231C30.3222 26.2247 29.7821 26.0006 29.2187 26V16.1719L31.1312 14.7375C31.1976 14.6877 31.2514 14.623 31.2883 14.5486C31.3252 14.4742 31.3442 14.3922 31.3437 14.3092C31.3431 14.2262 31.3232 14.1444 31.2853 14.0705C31.2475 13.9966 31.1929 13.9326 31.1259 13.8836L26.5624 10.5487V4.75C26.7033 4.75 26.8385 4.69403 26.9381 4.5944C27.0377 4.49477 27.0937 4.35965 27.0937 4.21875V2.09375C27.0937 1.95285 27.0377 1.81773 26.9381 1.7181C26.8385 1.61847 26.7033 1.5625 26.5624 1.5625H21.2499C21.109 1.5625 20.9739 1.61847 20.8743 1.7181C20.7747 1.81773 20.7187 1.95285 20.7187 2.09375V4.21875C20.7187 4.35965 20.7747 4.49477 20.8743 4.5944C20.9739 4.69403 21.109 4.75 21.2499 4.75V6.66655L17.3134 3.78983C17.2224 3.72335 17.1126 3.68752 16.9999 3.68752C16.8872 3.68752 16.7775 3.72335 16.6865 3.78983L2.87399 13.8836C2.80695 13.9326 2.75233 13.9966 2.71451 14.0705C2.67669 14.1444 2.65672 14.2262 2.6562 14.3092C2.65568 14.3922 2.67464 14.4742 2.71154 14.5486C2.74844 14.623 2.80226 14.6877 2.86868 14.7375L4.78118 16.1719V26C4.21779 26.0006 3.67765 26.2247 3.27928 26.6231C2.8809 27.0215 2.65681 27.5616 2.65618 28.125C2.65618 28.1471 2.65658 28.1694 2.65738 28.1919C2.1562 28.3208 1.71927 28.6281 1.42856 29.0562C1.13785 29.4843 1.01333 30.0038 1.07839 30.5171C1.14344 31.0305 1.39358 31.5025 1.78188 31.8446C2.17018 32.1866 2.66996 32.3752 3.18743 32.375H30.8124C31.3299 32.3752 31.8297 32.1866 32.218 31.8446C32.6063 31.5025 32.8564 31.0305 32.9215 30.5171C32.9865 30.0038 32.862 29.4843 32.5713 29.0562C32.2806 28.6281 31.8437 28.3208 31.3425 28.1919ZM21.7812 2.625H26.0312V3.6875H21.7812V2.625ZM22.3124 7.40625V4.75H25.4999V9.7723L22.2622 7.40625H22.3124ZM16.9999 4.8767L29.9196 14.3181L28.6826 15.2458L17.3124 6.9766C17.2216 6.91054 17.1122 6.87496 16.9999 6.87496C16.8876 6.87496 16.7782 6.91054 16.6874 6.9766L5.31728 15.2458L4.08026 14.3181L16.9999 4.8767ZM2.12493 30.25C2.12522 29.971 2.23508 29.7034 2.43084 29.5046C2.62659 29.3059 2.89258 29.192 3.17149 29.1875H3.17275C3.19991 29.1913 3.22707 29.1945 3.25477 29.1963C3.3428 29.2019 3.43084 29.1854 3.51092 29.1485C3.59101 29.1115 3.66063 29.0551 3.7135 28.9845C3.76636 28.9139 3.80081 28.8313 3.81374 28.744C3.82667 28.6567 3.81767 28.5676 3.78754 28.4847C3.74358 28.3698 3.72027 28.248 3.71868 28.125C3.71901 27.8433 3.83106 27.5733 4.03025 27.3741C4.22943 27.1749 4.49949 27.0628 4.78118 27.0625V31.3125H3.18743C2.90574 31.3122 2.63568 31.2001 2.4365 31.0009C2.23731 30.8017 2.12526 30.5317 2.12493 30.25ZM24.9687 31.3125H18.5937V19.625H24.9687V31.3125ZM26.0312 31.3125V19.0938C26.0312 18.9529 25.9752 18.8177 25.8756 18.7181C25.776 18.6185 25.6408 18.5625 25.4999 18.5625H18.0624C17.9215 18.5625 17.7864 18.6185 17.6868 18.7181C17.5872 18.8177 17.5312 18.9529 17.5312 19.0938V31.3125H5.84368V16.1768L16.9999 8.06314L28.1562 16.1768V31.3125H26.0312ZM30.8124 31.3125H29.2187V27.0625C29.5004 27.0628 29.7704 27.1749 29.9696 27.3741C30.1688 27.5733 30.2808 27.8433 30.2812 28.125C30.2796 28.2481 30.2563 28.37 30.2123 28.485C30.1822 28.5679 30.1732 28.657 30.1861 28.7443C30.199 28.8315 30.2335 28.9142 30.2864 28.9848C30.3392 29.0554 30.4089 29.1117 30.4889 29.1487C30.569 29.1857 30.6571 29.2022 30.7451 29.1966C30.7728 29.1948 30.7999 29.1916 30.8271 29.1878H30.8284C31.1102 29.1899 31.3796 29.3038 31.5773 29.5046C31.7751 29.7054 31.885 29.9764 31.8829 30.2582C31.8808 30.54 31.7668 30.8094 31.5661 31.0072C31.3653 31.205 31.0942 31.3149 30.8124 31.3128V31.3125Z" fill="#616161"/>
<path d="M14.875 18.5625H8.5C8.3591 18.5625 8.22398 18.6185 8.12435 18.7181C8.02472 18.8177 7.96875 18.9529 7.96875 19.0938V26.5312C7.96875 26.6721 8.02472 26.8073 8.12435 26.9069C8.22398 27.0065 8.3591 27.0625 8.5 27.0625H14.875C15.0159 27.0625 15.151 27.0065 15.2507 26.9069C15.3503 26.8073 15.4062 26.6721 15.4062 26.5312V19.0938C15.4062 18.9529 15.3503 18.8177 15.2507 18.7181C15.151 18.6185 15.0159 18.5625 14.875 18.5625ZM14.3438 22.2812H12.2188V19.625H14.3438V22.2812ZM11.1562 19.625V22.2812H9.03125V19.625H11.1562ZM9.03125 23.3438H11.1562V26H9.03125V23.3438ZM12.2188 26V23.3438H14.3438V26H12.2188Z" fill="#616161"/>
<path d="M20.6786 25.1409C20.7909 24.8698 20.6621 24.5591 20.3911 24.4468C20.12 24.3345 19.8092 24.4632 19.697 24.7343C19.5847 25.0054 19.7134 25.3161 19.9845 25.4284C20.2555 25.5407 20.5663 25.412 20.6786 25.1409Z" fill="#616161"/>
</svg>
