<svg width="34" height="35" viewBox="0 0 34 35" fill="none" xmlns="http://www.w3.org/2000/svg">
<path d="M31.3435 23.2604H28.0926C27.1795 21.2843 25.992 19.4471 24.5651 17.8031C24.4714 17.7002 24.3409 17.6383 24.2019 17.6307C24.0629 17.623 23.9265 17.6702 23.8219 17.7622C23.7174 17.8541 23.6532 17.9835 23.643 18.1223C23.6329 18.2611 23.6777 18.3984 23.7678 18.5046C25.0171 19.9463 26.0726 21.5451 26.9075 23.2604H18.7702C16.4107 22.7988 15.6258 21.7574 15.6239 21.7574C15.2752 21.0977 14.72 20.5703 14.0431 20.2561C13.3663 19.9418 12.6051 19.858 11.8761 20.0174C11.0313 18.9466 10.1249 18.4272 9.17993 18.4755C7.96724 18.5351 7.0941 19.5297 6.71486 20.0552C6.47975 20.0258 6.24241 20.0184 6.00592 20.0331C6.76029 18.4079 8.41652 15.1947 10.2785 13.8353C12.1423 12.5974 13.792 14.8727 14.887 17.126C15.6008 18.7455 16.7667 20.1247 18.2449 21.098C18.8954 21.5153 21.4783 22.8853 21.6736 21.759C21.6841 21.69 21.6809 21.6197 21.6641 21.552C21.6473 21.4843 21.6174 21.4205 21.576 21.3644C21.5346 21.3082 21.4825 21.2608 21.4227 21.2248C21.363 21.1888 21.2967 21.1649 21.2277 21.1546C19.3854 20.7912 17.7603 19.7168 16.7043 18.164C17.6935 16.4794 19.4861 14.8487 21.5277 16.3469C21.9349 16.5862 22.5039 17.5265 23.0508 16.9699C23.0977 16.9183 23.134 16.858 23.1576 16.7923C23.1811 16.7267 23.1916 16.657 23.1882 16.5874C23.1849 16.5177 23.1678 16.4494 23.1381 16.3863C23.1083 16.3232 23.0664 16.2666 23.0147 16.2197C21.5073 14.5689 19.0289 14.109 17.332 15.7104C16.8699 16.1525 16.4541 16.6407 16.0911 17.1674C16.0089 17.0109 15.9292 16.8523 15.8556 16.6893C14.4081 13.7063 12.3209 11.2833 9.65181 12.9772C7.09981 14.8409 5.03959 19.5367 4.65241 20.4592C3.36928 21.176 3.05976 23.1146 3.14569 23.2603H2.65604C2.51662 23.2626 2.38368 23.3196 2.28589 23.419C2.1881 23.5183 2.1333 23.6522 2.1333 23.7916C2.1333 23.931 2.18812 24.0649 2.28592 24.1643C2.38371 24.2636 2.51666 24.3206 2.65607 24.3228C4.84122 24.3238 30.0648 24.3222 31.3435 24.3228C31.4829 24.3206 31.6159 24.2636 31.7137 24.1643C31.8115 24.0649 31.8663 23.931 31.8663 23.7916C31.8663 23.6522 31.8115 23.5183 31.7137 23.419C31.6159 23.3196 31.4829 23.2626 31.3435 23.2604ZM4.16999 23.2604C4.29903 22.2604 4.95624 20.7061 6.86016 21.1562C6.9697 21.1782 7.0834 21.1654 7.18529 21.1195C7.28718 21.0736 7.37213 20.997 7.42821 20.9003C7.43573 20.8874 8.20018 19.5852 9.2357 19.5364C9.89121 19.4996 10.5573 19.9795 11.2427 20.9434C11.3124 21.0415 11.4134 21.1131 11.5291 21.1464C11.6447 21.1796 11.7683 21.1726 11.8795 21.1265C11.948 21.0975 13.5716 20.449 14.7316 22.3338C15.0234 22.7065 15.3829 23.0209 15.7913 23.2604H4.16999Z" fill="#616161"/>
<path d="M27.9345 26.3755H6.06555C5.92608 26.3777 5.79305 26.4346 5.69519 26.534C5.59733 26.6334 5.54248 26.7673 5.54248 26.9068C5.54248 27.0462 5.59734 27.1801 5.69521 27.2795C5.79308 27.3789 5.92611 27.4358 6.06558 27.438H27.9345C28.074 27.4358 28.207 27.3789 28.3048 27.2795C28.4027 27.1801 28.4576 27.0462 28.4576 26.9067C28.4575 26.7672 28.4027 26.6333 28.3048 26.534C28.207 26.4346 28.0739 26.3776 27.9345 26.3755Z" fill="#616161"/>
<path d="M24.5255 29.4912H9.47459C9.33506 29.4933 9.20194 29.5502 9.104 29.6496C9.00607 29.749 8.95117 29.8829 8.95117 30.0225C8.95118 30.162 9.00608 30.296 9.10402 30.3954C9.20196 30.4948 9.33508 30.5516 9.47461 30.5537H24.5255C24.665 30.5516 24.7981 30.4948 24.896 30.3954C24.994 30.296 25.0489 30.162 25.0489 30.0225C25.0489 29.8829 24.994 29.749 24.896 29.6496C24.7981 29.5502 24.665 29.4933 24.5255 29.4912Z" fill="#616161"/>
<path d="M24.5256 11.7294C27.8048 11.6252 27.8036 6.87101 24.5256 6.76709C21.2465 6.87143 21.2468 11.6258 24.5256 11.7294ZM24.5256 7.82959C24.8992 7.83375 25.256 7.98505 25.5186 8.25065C25.7813 8.51625 25.9286 8.87473 25.9286 9.24827C25.9286 9.62181 25.7813 9.98028 25.5186 10.2459C25.2559 10.5115 24.8991 10.6628 24.5256 10.6669C24.1521 10.6627 23.7953 10.5114 23.5326 10.2458C23.2699 9.98024 23.1226 9.62177 23.1226 9.24823C23.1226 8.87468 23.27 8.51622 23.5326 8.25062C23.7953 7.98503 24.1521 7.83374 24.5256 7.82959Z" fill="#616161"/>
<path d="M24.5255 6.02422C24.6629 6.02226 24.7941 5.96629 24.8906 5.8684C24.9871 5.77051 25.0412 5.63858 25.0412 5.50112C25.0412 5.36367 24.9871 5.23173 24.8906 5.13385C24.7941 5.03596 24.6629 4.97999 24.5255 4.97803C24.388 4.97999 24.2569 5.03596 24.1604 5.13385C24.0639 5.23173 24.0098 5.36367 24.0098 5.50112C24.0098 5.63858 24.0639 5.77051 24.1604 5.8684C24.2569 5.96629 24.388 6.02226 24.5255 6.02422Z" fill="#616161"/>
<path d="M22.2458 6.96842C22.3408 6.86969 22.3932 6.73764 22.3919 6.60064C22.3906 6.46364 22.3356 6.33263 22.2387 6.23576C22.1418 6.13888 22.0108 6.08387 21.8738 6.08254C21.7368 6.08122 21.6047 6.13368 21.506 6.22867C21.411 6.3274 21.3586 6.45945 21.3599 6.59645C21.3612 6.73345 21.4162 6.86446 21.5131 6.96134C21.61 7.05821 21.741 7.11322 21.878 7.11455C22.015 7.11587 22.147 7.06341 22.2458 6.96842Z" fill="#616161"/>
<path d="M20.7779 9.77129C20.9153 9.76933 21.0465 9.71336 21.143 9.61547C21.2395 9.51758 21.2936 9.38565 21.2936 9.24819C21.2936 9.11074 21.2395 8.9788 21.143 8.88092C21.0465 8.78303 20.9153 8.72706 20.7779 8.7251C20.6405 8.72706 20.5093 8.78303 20.4128 8.88092C20.3163 8.9788 20.2622 9.11074 20.2622 9.24819C20.2622 9.38565 20.3163 9.51758 20.4128 9.61547C20.5093 9.71336 20.6405 9.76933 20.7779 9.77129Z" fill="#616161"/>
<path d="M22.2458 12.2677C22.3408 12.169 22.3932 12.037 22.3919 11.9C22.3906 11.763 22.3356 11.6319 22.2387 11.5351C22.1418 11.4382 22.0108 11.3832 21.8738 11.3819C21.7368 11.3805 21.6047 11.433 21.506 11.528C21.411 11.6267 21.3586 11.7588 21.3599 11.8958C21.3612 12.0328 21.4162 12.1638 21.5131 12.2607C21.61 12.3575 21.741 12.4125 21.878 12.4139C22.015 12.4152 22.147 12.3627 22.2458 12.2677Z" fill="#616161"/>
<path d="M24.0024 12.9956C24.0045 13.133 24.0606 13.264 24.1584 13.3604C24.2563 13.4567 24.3882 13.5108 24.5255 13.5108C24.6629 13.5108 24.7947 13.4567 24.8926 13.3604C24.9905 13.264 25.0465 13.133 25.0486 12.9956C25.0465 12.8583 24.9905 12.7273 24.8926 12.6309C24.7947 12.5345 24.6629 12.4805 24.5255 12.4805C24.3882 12.4805 24.2563 12.5345 24.1584 12.6309C24.0606 12.7273 24.0045 12.8583 24.0024 12.9956Z" fill="#616161"/>
<path d="M26.8053 11.5279C26.7103 11.6267 26.6579 11.7587 26.6592 11.8957C26.6605 12.0327 26.7156 12.1637 26.8124 12.2605C26.9093 12.3574 27.0403 12.4124 27.1773 12.4137C27.3142 12.4151 27.4463 12.3626 27.545 12.2677C27.64 12.1689 27.6924 12.0369 27.6911 11.8999C27.6897 11.7629 27.6347 11.6319 27.5379 11.5351C27.441 11.4382 27.31 11.3832 27.173 11.3819C27.036 11.3805 26.904 11.433 26.8053 11.5279Z" fill="#616161"/>
<path d="M28.2725 9.77129C28.41 9.76933 28.5411 9.71336 28.6376 9.61547C28.7341 9.51758 28.7882 9.38565 28.7882 9.24819C28.7882 9.11074 28.7341 8.9788 28.6376 8.88092C28.5411 8.78303 28.41 8.72706 28.2725 8.7251C28.1351 8.72706 28.0039 8.78303 27.9074 8.88092C27.8109 8.9788 27.7568 9.11074 27.7568 9.24819C27.7568 9.38565 27.8109 9.51758 27.9074 9.61547C28.0039 9.71336 28.1351 9.76933 28.2725 9.77129Z" fill="#616161"/>
<path d="M27.5451 6.96842C27.6401 6.86969 27.6925 6.73764 27.6912 6.60064C27.6899 6.46364 27.6349 6.33263 27.538 6.23576C27.4411 6.13888 27.3101 6.08387 27.1731 6.08254C27.0361 6.08122 26.9041 6.13368 26.8053 6.22867C26.7103 6.3274 26.6579 6.45945 26.6592 6.59645C26.6605 6.73345 26.7155 6.86446 26.8124 6.96134C26.9093 7.05821 27.0403 7.11322 27.1773 7.11455C27.3143 7.11587 27.4464 7.06341 27.5451 6.96842Z" fill="#616161"/>
</svg>
