<svg width="35" height="35" viewBox="0 0 35 35" fill="none" xmlns="http://www.w3.org/2000/svg">
<path d="M26.7486 22.8878H8.2877C8.06794 22.8878 7.88965 22.7095 7.88965 22.4897V10.5372C7.88965 10.3175 8.06794 10.1392 8.2877 10.1392H26.7493C26.969 10.1392 27.1473 10.3175 27.1473 10.5372V22.4897C27.1466 22.7095 26.969 22.8878 26.7486 22.8878ZM8.68575 22.0917H26.3512V10.9353H8.68575V22.0917Z" fill="#616161"/>
<path d="M28.1446 10.9351H22.9313C22.8103 10.9351 22.6956 10.8798 22.6203 10.7851L18.7027 5.87583C18.6073 5.75628 18.5887 5.5925 18.655 5.45498C18.7214 5.31746 18.861 5.2297 19.0137 5.2297H23.6832C23.7951 5.2297 23.9022 5.27669 23.9775 5.3603L28.4383 10.2703C28.5441 10.3871 28.5717 10.555 28.5074 10.6987C28.4445 10.8425 28.3022 10.9351 28.1446 10.9351ZM23.1227 10.139H27.2449L23.5069 6.0251H19.8402L23.1227 10.139ZM12.1052 10.9351H6.89185C6.73429 10.9351 6.59193 10.8425 6.52767 10.698C6.46409 10.5543 6.49104 10.3857 6.59677 10.2696L11.0582 5.35961C11.1336 5.27669 11.2407 5.229 11.3526 5.229H16.0221C16.1748 5.229 16.3144 5.31677 16.3808 5.45429C16.4471 5.59181 16.4284 5.75559 16.3331 5.87514L12.4162 10.7851C12.3408 10.8805 12.2268 10.9351 12.1052 10.9351ZM7.79161 10.139H11.9138L15.1956 6.0251H11.5295L7.79161 10.139Z" fill="#616161"/>
<path d="M22.9311 10.9352H12.105C11.9523 10.9352 11.8127 10.8474 11.7464 10.7099C11.68 10.5724 11.6987 10.4086 11.7941 10.289L17.2071 3.50494C17.2824 3.41026 17.3971 3.35498 17.5181 3.35498C17.639 3.35498 17.7537 3.41026 17.8291 3.50494L23.2421 10.289C23.3375 10.4086 23.3561 10.5724 23.2898 10.7099C23.2234 10.8481 23.0839 10.9352 22.9311 10.9352ZM12.9322 10.1391H22.1039L17.5181 4.39157L12.9322 10.1391Z" fill="#616161"/>
<path d="M17.5178 9.53082C16.5911 9.53082 15.8379 8.77687 15.8379 7.85086C15.8379 6.92415 16.5918 6.1709 17.5178 6.1709C18.4446 6.1709 19.1978 6.92484 19.1978 7.85086C19.1978 8.77687 18.4446 9.53082 17.5178 9.53082ZM17.5178 6.96631C17.0307 6.96631 16.634 7.36297 16.634 7.85017C16.634 8.33736 17.0307 8.73403 17.5178 8.73403C18.005 8.73403 18.4017 8.33736 18.4017 7.85017C18.4017 7.36297 18.005 6.96631 17.5178 6.96631Z" fill="#616161"/>
<path d="M28.1702 24.5298H6.86631C6.64655 24.5298 6.46826 24.3516 6.46826 24.1318V22.4898C6.46826 22.2701 6.64655 22.0918 6.86631 22.0918H28.1702C28.39 22.0918 28.5683 22.2701 28.5683 22.4898V24.1318C28.5683 24.3516 28.39 24.5298 28.1702 24.5298ZM7.26436 23.7337H27.7715V22.8879H7.26436V23.7337Z" fill="#616161"/>
<path d="M19.5269 22.8875H15.5084C15.2886 22.8875 15.1104 22.7092 15.1104 22.4895V17.0923C15.1104 16.319 15.7392 15.6895 16.5132 15.6895H18.5228C19.2961 15.6895 19.9256 16.3183 19.9256 17.0923V22.4895C19.9249 22.7092 19.7473 22.8875 19.5269 22.8875ZM15.9064 22.0914H19.1288V17.0923C19.1288 16.7578 18.8566 16.4856 18.5221 16.4856H16.5125C16.178 16.4856 15.9058 16.7578 15.9058 17.0923V22.0914H15.9064Z" fill="#616161"/>
<path d="M13.7917 19.6424H9.63633C9.41657 19.6424 9.23828 19.4641 9.23828 19.2443V15.881C9.23828 15.6612 9.41657 15.4829 9.63633 15.4829H13.7917C14.0114 15.4829 14.1897 15.6612 14.1897 15.881V19.2443C14.1897 19.4641 14.0114 19.6424 13.7917 19.6424ZM10.0344 18.8463H13.3936V16.279H10.0344V18.8463Z" fill="#616161"/>
<path d="M11.7145 19.6424C11.4947 19.6424 11.3164 19.4641 11.3164 19.2443V15.881C11.3164 15.6612 11.4947 15.4829 11.7145 15.4829C11.9342 15.4829 12.1125 15.6612 12.1125 15.881V19.2443C12.1125 19.4641 11.9342 19.6424 11.7145 19.6424Z" fill="#616161"/>
<path d="M25.3546 19.7605H21.1993C20.9796 19.7605 20.8013 19.5823 20.8013 19.3625V15.9991C20.8013 15.7794 20.9796 15.6011 21.1993 15.6011H25.3546C25.5744 15.6011 25.7527 15.7794 25.7527 15.9991V19.3625C25.7527 19.5823 25.5744 19.7605 25.3546 19.7605ZM21.5974 18.9644H24.9566V16.3972H21.5974V18.9644Z" fill="#616161"/>
<path d="M23.2774 19.7605C23.0577 19.7605 22.8794 19.5823 22.8794 19.3625V15.9991C22.8794 15.7794 23.0577 15.6011 23.2774 15.6011C23.4972 15.6011 23.6755 15.7794 23.6755 15.9991V19.3625C23.6755 19.5823 23.4972 19.7605 23.2774 19.7605Z" fill="#616161"/>
<path d="M13.7917 18.1687H9.63633C9.41657 18.1687 9.23828 17.9904 9.23828 17.7706C9.23828 17.5509 9.41657 17.3726 9.63633 17.3726H13.7917C14.0114 17.3726 14.1897 17.5509 14.1897 17.7706C14.1897 17.9904 14.0114 18.1687 13.7917 18.1687Z" fill="#616161"/>
<path d="M25.3546 18.2868H21.1993C20.9796 18.2868 20.8013 18.1085 20.8013 17.8888C20.8013 17.669 20.9796 17.4907 21.1993 17.4907H25.3546C25.5744 17.4907 25.7527 17.669 25.7527 17.8888C25.7527 18.1085 25.5744 18.2868 25.3546 18.2868Z" fill="#616161"/>
<path d="M31.1333 24.5295H3.90293C3.68318 24.5295 3.50488 24.3512 3.50488 24.1314C3.50488 23.9117 3.68318 23.7334 3.90293 23.7334H31.1333C31.3531 23.7334 31.5314 23.9117 31.5314 24.1314C31.5314 24.3512 31.3531 24.5295 31.1333 24.5295Z" fill="#616161"/>
<path d="M14.3288 27.4929C13.0449 27.4929 11.8963 27.2538 10.7685 27.0188C8.69466 26.5869 6.73621 26.1792 4.0245 27.2406C3.81995 27.3208 3.58913 27.2199 3.50897 27.0146C3.42881 26.8101 3.5297 26.5793 3.73425 26.4991C6.66641 25.352 8.83425 25.8032 10.9309 26.24C12.9253 26.6553 14.8084 27.0471 17.3923 26.1819C20.18 25.2483 22.2587 25.6809 24.269 26.0997C26.3429 26.5316 28.3013 26.9393 31.013 25.8779C31.2183 25.7977 31.4484 25.8986 31.5286 26.1038C31.6087 26.3091 31.5078 26.5392 31.3026 26.6194C28.3704 27.7665 26.2026 27.3153 24.1059 26.8785C22.1115 26.4632 20.2284 26.0714 17.6445 26.9366C16.4207 27.3464 15.333 27.4929 14.3288 27.4929Z" fill="#616161"/>
<path d="M14.3288 29.6208C13.0449 29.6208 11.8963 29.3817 10.7685 29.1467C8.69466 28.7148 6.73621 28.3071 4.0245 29.3686C3.81995 29.4487 3.58913 29.3478 3.50897 29.1426C3.42881 28.938 3.5297 28.7072 3.73425 28.627C6.66641 27.4799 8.83425 27.9312 10.9309 28.3679C12.9253 28.7832 14.8084 29.1751 17.3923 28.3099C20.18 27.3762 22.2587 27.8088 24.269 28.2276C26.3429 28.6595 28.3013 29.0672 31.013 28.0058C31.2183 27.9256 31.4484 28.0265 31.5286 28.2318C31.6087 28.437 31.5078 28.6671 31.3026 28.7473C28.3704 29.8944 26.2026 29.4432 24.1059 29.0064C22.1115 28.5911 20.2284 28.1993 17.6445 29.0645C16.4207 29.4743 15.333 29.6208 14.3288 29.6208Z" fill="#616161"/>
<path d="M14.3288 31.7477C13.0449 31.7477 11.8963 31.5086 10.7685 31.2737C8.69466 30.8418 6.73621 30.434 4.0245 31.4955C3.81995 31.5757 3.58913 31.4748 3.50897 31.2695C3.42881 31.065 3.5297 30.8342 3.73425 30.754C6.66641 29.6068 8.83425 30.0581 10.9309 30.4949C12.9253 30.9102 14.8084 31.302 17.3923 30.4368C20.18 29.5032 22.2587 29.9358 24.269 30.3546C26.3429 30.7865 28.3013 31.1942 31.013 30.1334C31.2183 30.0533 31.4484 30.1542 31.5286 30.3594C31.6087 30.5646 31.5078 30.7948 31.3026 30.8749C28.3704 32.0221 26.2026 31.5708 24.1059 31.1341C22.1115 30.7188 20.2284 30.3269 17.6445 31.1921C16.4207 31.6012 15.333 31.7477 14.3288 31.7477Z" fill="#616161"/>
<path d="M30.5267 22.9425C29.2496 22.9425 28.2109 21.9038 28.2109 20.6268C28.2109 20.0117 28.4597 19.4209 28.8889 18.9896C28.8122 18.792 28.7728 18.5812 28.7728 18.3656C28.7728 17.4133 29.5474 16.6387 30.4997 16.6387C31.452 16.6387 32.2267 17.4133 32.2267 18.3656C32.2267 18.566 32.1921 18.7637 32.1251 18.9496C32.5798 19.3836 32.8431 19.9889 32.8431 20.6261C32.8431 21.9031 31.8044 22.9425 30.5267 22.9425ZM30.4997 17.4348C29.9863 17.4348 29.5689 17.8522 29.5689 18.3656C29.5689 18.5453 29.62 18.7201 29.7174 18.8701C29.8315 19.0463 29.7893 19.2806 29.6207 19.4057C29.2309 19.6959 29.007 20.1409 29.007 20.6261C29.007 21.4643 29.6891 22.1464 30.5274 22.1464C31.3656 22.1464 32.0477 21.4643 32.0477 20.6261C32.0477 20.1333 31.8072 19.669 31.4043 19.3842C31.2329 19.2633 31.1852 19.0297 31.2951 18.8514C31.3843 18.7056 31.432 18.5377 31.432 18.3656C31.4306 17.8522 31.0132 17.4348 30.4997 17.4348Z" fill="#616161"/>
<path d="M30.5265 24.5299C30.3067 24.5299 30.1284 24.3516 30.1284 24.1318V19.7906C30.1284 19.5709 30.3067 19.3926 30.5265 19.3926C30.7462 19.3926 30.9245 19.5709 30.9245 19.7906V24.1318C30.9245 24.3516 30.7469 24.5299 30.5265 24.5299Z" fill="#616161"/>
<path d="M30.5271 21.0214C30.4221 21.0214 30.3171 20.9799 30.239 20.8977C30.0876 20.7381 30.0938 20.4865 30.2528 20.3352L30.986 19.6379C31.1456 19.4865 31.3972 19.4928 31.5485 19.6517C31.6999 19.8113 31.6936 20.0629 31.5347 20.2142L30.8015 20.9115C30.7241 20.9854 30.6253 21.0214 30.5271 21.0214Z" fill="#616161"/>
<path d="M30.5267 21.86C30.4279 21.86 30.3298 21.8234 30.2524 21.7502L29.5192 21.0529C29.3602 20.9015 29.3533 20.6493 29.5053 20.4904C29.6567 20.3314 29.9089 20.3245 30.0679 20.4765L30.8011 21.1738C30.96 21.3252 30.9669 21.5774 30.8149 21.7363C30.7375 21.8193 30.6325 21.86 30.5267 21.86Z" fill="#616161"/>
<path d="M4.50958 22.9425C3.23251 22.9425 2.19385 21.9038 2.19385 20.6268C2.19385 20.0117 2.44263 19.4209 2.87177 18.9896C2.79507 18.792 2.75568 18.5812 2.75568 18.3656C2.75568 17.4133 3.53035 16.6387 4.48263 16.6387C5.4349 16.6387 6.20958 17.4133 6.20958 18.3656C6.20958 18.566 6.17503 18.7637 6.10799 18.9496C6.56271 19.3836 6.826 19.9889 6.826 20.6261C6.82531 21.9031 5.78665 22.9425 4.50958 22.9425ZM4.48194 17.4348C3.96848 17.4348 3.55108 17.8522 3.55108 18.3656C3.55108 18.5453 3.60222 18.7201 3.69966 18.8701C3.81369 19.0463 3.77153 19.2806 3.60291 19.4057C3.21316 19.6959 2.98925 20.1409 2.98925 20.6261C2.98925 21.4643 3.67133 22.1464 4.50958 22.1464C5.34783 22.1464 6.0299 21.4643 6.0299 20.6261C6.0299 20.1333 5.78942 19.669 5.38653 19.3842C5.21515 19.2633 5.16747 19.0297 5.27734 18.8514C5.36649 18.7056 5.41417 18.5377 5.41417 18.3656C5.41279 17.8522 4.99539 17.4348 4.48194 17.4348Z" fill="#616161"/>
<path d="M4.50938 24.5299C4.28962 24.5299 4.11133 24.3516 4.11133 24.1318V19.7906C4.11133 19.5709 4.28962 19.3926 4.50938 19.3926C4.72913 19.3926 4.90743 19.5709 4.90743 19.7906V24.1318C4.90673 24.3516 4.72913 24.5299 4.50938 24.5299Z" fill="#616161"/>
<path d="M4.50955 21.0214C4.40451 21.0214 4.29947 20.9799 4.22138 20.8977C4.07004 20.7381 4.07626 20.4865 4.23521 20.3352L4.96842 19.6379C5.12805 19.4865 5.3796 19.4928 5.53094 19.6517C5.68228 19.8113 5.67606 20.0629 5.51712 20.2142L4.7839 20.9115C4.70651 20.9854 4.60768 21.0214 4.50955 21.0214Z" fill="#616161"/>
<path d="M4.50866 21.8603C4.40984 21.8603 4.31171 21.8236 4.23431 21.7504L3.5011 21.0531C3.34215 20.9018 3.33524 20.6495 3.48728 20.4906C3.63862 20.3316 3.89085 20.3254 4.0498 20.4768L4.78301 21.174C4.94195 21.3254 4.94886 21.5776 4.79683 21.7366C4.71943 21.8195 4.61439 21.8603 4.50866 21.8603Z" fill="#616161"/>
</svg>
