<svg width="34" height="35" viewBox="0 0 34 35" fill="none" xmlns="http://www.w3.org/2000/svg">
<g clip-path="url(#clip0_23_2010)">
<path fill-rule="evenodd" clip-rule="evenodd" d="M19.0227 21.3487L11.7311 31.1267C11.5433 31.3771 11.594 31.7322 11.8444 31.92C12.0947 32.1078 12.4499 32.0571 12.6377 31.8067L19.9311 22.0258C20.0525 21.8638 20.0784 21.6494 19.9989 21.4632C19.9193 21.277 19.7465 21.1475 19.5455 21.1232C19.3445 21.099 19.1459 21.1839 19.0245 21.3458L19.0227 21.3487Z" fill="#616161"/>
<path d="M1.23698 24.038L4.26174 25.0483C4.36327 25.0853 4.47045 25.1045 4.57849 25.105C4.75406 25.1043 4.92624 25.0565 5.07711 24.9667L15.4241 18.7677C15.5552 19.1404 15.7137 19.503 15.8984 19.8522L14.0851 22.2831C13.9334 22.4889 13.8685 22.7461 13.9044 22.9993L14.054 24.0488L12.9292 24.382C12.5108 24.5035 12.225 24.8892 12.2305 25.3249C12.2414 25.5619 12.2708 25.7978 12.3183 26.0303L12.3626 26.3137L11.2292 26.6485C10.7693 26.7883 10.4801 27.2425 10.5481 27.7184L10.6711 28.5859L9.58202 28.9101C8.69586 29.1695 8.16417 30.0732 8.36769 30.9738L8.99103 33.7368C9.08479 34.1787 9.47312 34.4961 9.92486 34.5C9.95036 34.5 9.97646 34.5 10.0025 34.4966L13.1814 34.279C13.4704 34.2666 13.7381 34.1238 13.9095 33.8909L21.3518 23.9122C24.1647 24.48 27.0647 23.4818 28.9322 21.3031C30.7997 19.1243 31.3426 16.1058 30.3513 13.4128C32.7524 11.7703 33.903 8.82527 33.2516 5.99002C32.6001 3.15477 30.2792 1.00747 27.402 0.577836C24.5248 0.148202 21.6778 1.52383 20.2264 4.04505C17.9762 4.01749 15.8209 4.95007 14.3004 6.6091C12.78 8.26814 12.0384 10.4965 12.2616 12.7357L9.64823 14.2985C9.43487 14.4326 9.28161 14.644 9.22039 14.8884L8.96141 15.914L7.79522 15.7939C7.36074 15.7452 6.94738 15.993 6.78549 16.3991C6.7052 16.6268 6.64265 16.8604 6.59849 17.0978L6.53388 17.3692L5.36829 17.2513C4.88507 17.1944 4.43439 17.5044 4.31493 17.9761L4.10131 18.826L2.97257 18.7127C2.59753 18.6706 2.21909 18.7535 1.89597 18.9484C1.45053 19.2087 1.14394 19.6538 1.05961 20.1627L0.586483 22.95C0.493849 23.4256 0.774273 23.8945 1.23698 24.038ZM28.7624 19.6C27.2388 22.2001 24.1771 23.4765 21.2578 22.7285C21.0355 22.6719 20.8011 22.755 20.6639 22.9388L13.0476 33.1531L10.0676 33.3571L9.47153 30.7289C9.43195 30.5514 9.47099 30.3655 9.57863 30.219C9.65938 30.1125 9.7722 30.0348 9.90049 29.9974L11.1256 29.633C11.5893 29.4984 11.8818 29.0412 11.8095 28.5638L11.6866 27.6962L12.8199 27.3613C13.2844 27.2264 13.5768 26.7679 13.5032 26.2898L13.4358 25.8523C13.4097 25.6868 13.3848 25.5344 13.3712 25.4318L14.5147 25.0936C14.9766 24.9574 15.267 24.501 15.1947 24.0249L15.0349 22.9029L17.0256 20.2334C17.1624 20.0501 17.1756 19.8024 17.059 19.6055C15.3276 16.6924 16.0055 12.9492 18.6485 10.8282C21.2915 8.70727 25.0927 8.85615 27.5617 11.1772C28.1073 11.6869 28.5637 12.2842 28.9121 12.9446C28.2598 13.2567 27.5556 13.4457 26.8348 13.5022C26.6585 12.443 25.7611 11.6541 24.688 11.6152C23.615 11.5763 22.6628 12.298 22.4103 13.3417C22.1577 14.3853 22.6747 15.4625 23.647 15.9184C24.6192 16.3743 25.7779 16.0829 26.4188 15.2214C26.5472 15.0445 26.6486 14.8495 26.7197 14.6428C27.633 14.598 28.5289 14.3752 29.3568 13.9872C29.9828 15.8559 29.7658 17.9041 28.7624 19.6ZM23.8893 12.989C24.0465 12.8595 24.2358 12.775 24.4372 12.7448C24.4922 12.7369 24.5477 12.7329 24.6033 12.7329C25.0818 12.7343 25.5079 13.0361 25.668 13.4871C25.0526 13.4164 24.4524 13.2482 23.8898 12.989H23.8893ZM25.4538 14.6051C25.1686 14.9384 24.7159 15.0759 24.2935 14.9574C23.8711 14.8389 23.556 14.4861 23.4857 14.0531C24.1113 14.3326 24.7746 14.5185 25.4543 14.605L25.4538 14.6051ZM26.3576 1.63452C28.9272 1.6308 31.208 3.27961 32.0101 5.72089C32.8122 8.16216 31.9538 10.8424 29.8827 12.3634C29.4802 11.6116 28.957 10.9309 28.334 10.3484C28.164 10.1914 27.9895 10.0492 27.8116 9.90865C27.7014 9.48652 27.5558 9.07442 27.3763 8.67679C26.4462 6.61568 24.6734 5.05499 22.5111 4.39354C22.1767 4.29294 21.8359 4.21438 21.4912 4.1584C22.6026 2.57141 24.4202 1.62874 26.3576 1.63452ZM2.18217 20.3514C2.21152 20.1706 2.32049 20.0125 2.47906 19.9208C2.59208 19.8518 2.72489 19.8225 2.85643 19.8375L4.13079 19.9678C4.60996 20.0226 5.05427 19.7103 5.1649 19.2409L5.37912 18.3909L6.55719 18.5121C7.03835 18.5574 7.4804 18.2443 7.59754 17.7755L7.69728 17.3568C7.73692 17.1908 7.77205 17.036 7.79868 16.9335L8.98525 17.0554C9.46389 17.1076 9.90714 16.7971 10.0216 16.3295L10.3015 15.2245L13.1568 13.5178C13.3529 13.4007 13.4594 13.1772 13.4271 12.9512C12.9421 9.64894 14.9277 6.48347 18.1119 5.48263C21.296 4.48179 24.7355 5.94208 26.227 8.928C24.9687 8.3449 23.5782 8.10658 22.1976 8.23726C19.9649 8.4374 17.9212 9.57271 16.5716 11.3626C15.2221 13.1523 14.6927 15.4296 15.1145 17.6312L4.56149 23.9536L1.73109 23.0084L2.18217 20.3514Z" fill="#616161"/>
<path fill-rule="evenodd" clip-rule="evenodd" d="M13.7615 17.1206C14.0257 16.958 14.1101 16.6132 13.9508 16.347C13.7915 16.0808 13.4478 15.9922 13.1796 16.1482L4.11717 21.5807C3.94074 21.6833 3.83316 21.8729 3.83549 22.077C3.83781 22.2812 3.94983 22.4682 4.12859 22.5668C4.30735 22.6653 4.52529 22.6601 4.69914 22.5531L13.7615 17.1206Z" fill="#616161"/>
</g>
<defs>
<clipPath id="clip0_23_2010">
<rect width="34" height="34" fill="white" transform="translate(0 0.5)"/>
</clipPath>
</defs>
</svg>
