<svg width="35" height="35" viewBox="0 0 35 35" fill="none" xmlns="http://www.w3.org/2000/svg">
<g clip-path="url(#clip0_23_2154)">
<path d="M2.24186 18.2008C2.44033 18.3092 2.64915 18.3975 2.86519 18.4643C2.59976 19.4428 2.87834 20.4885 3.5954 21.2052C4.31245 21.9219 5.35827 22.1999 6.33659 21.934C6.73428 23.2127 7.8528 24.1336 9.18409 24.2783C9.37496 24.8214 9.70173 25.3066 10.1333 25.6876V29.3999C10.1333 31.0171 9.81309 32.7239 8.96139 33.2192C8.85826 32.0779 8.47576 29.8804 7.04776 28.9284C6.78738 28.7547 6.43549 28.825 6.26179 29.0854C6.0881 29.3457 6.15838 29.6976 6.41876 29.8713C7.04275 30.4012 7.46156 31.1327 7.60253 31.9391C7.04491 31.4476 6.34135 31.1528 5.59993 31.0999C5.29083 31.1002 5.03971 31.3495 5.03723 31.6586C5.03495 31.9692 5.28151 32.2246 5.59199 32.2332C6.33304 32.3336 6.99581 32.7461 7.41326 33.3665H4.46659C4.15363 33.3665 3.89993 33.6202 3.89993 33.9332C3.89993 34.2462 4.15363 34.4999 4.46659 34.4999H33.9333C34.2462 34.4999 34.4999 34.2462 34.4999 33.9332C34.4999 33.6202 34.2462 33.3665 33.9333 33.3665H32.7999V8.99986C33.7388 8.99986 34.4999 8.23875 34.4999 7.29986V7.07603C34.5008 6.74062 34.4022 6.41249 34.2166 6.1331L31.3436 1.82643C31.0285 1.35175 30.4966 1.06644 29.9269 1.06653H15.7999C15.6108 1.06656 15.4342 1.16094 15.329 1.31813L15.1539 1.58106C14.2128 0.914701 12.9593 0.893779 11.9965 1.52836C11.2765 0.787606 10.2583 0.415111 9.23022 0.51636C8.20218 0.61761 7.27622 1.18158 6.71456 2.04856C6.5293 2.33645 6.38922 2.651 6.29919 2.9813C4.55711 2.38625 2.63483 3.07193 1.6626 4.63517C0.690382 6.19842 0.925367 8.22575 2.22939 9.52516C1.84208 10.0229 1.63225 10.6358 1.63326 11.2665C1.63488 11.6881 1.73174 12.1038 1.91659 12.4826C0.971847 13.1586 0.43912 14.2713 0.504977 15.4311C0.570835 16.5909 1.22667 17.6362 2.24186 18.2008ZM10.4047 33.3665C10.9657 32.4973 11.2666 31.1503 11.2666 29.3999V26.3705C11.9995 26.6319 12.8003 26.6319 13.5333 26.3705V29.3999C13.5333 31.1503 13.8342 32.4973 14.3952 33.3665H10.4047ZM31.6666 22.5999H24.8666V21.4665H31.6666V22.5999ZM23.7333 31.0999H20.3333V29.3999H23.7333V31.0999ZM23.7333 28.2665H20.3333V26.5665H23.7333V28.2665ZM23.7333 25.4332H20.3333V23.7332H23.7333V25.4332ZM20.3333 32.2332H23.7333V33.3665H20.3333V32.2332ZM23.7333 22.5999H20.3333V16.3665C20.3333 15.4276 21.0944 14.6665 22.0333 14.6665C22.9721 14.6665 23.7333 15.4276 23.7333 16.3665V22.5999ZM19.1999 22.5999H14.6666V22.1392C14.9769 21.9596 15.2572 21.7327 15.4973 21.4665H19.1999V22.5999ZM17.0092 33.3665C17.0707 32.8799 17.3427 32.4449 17.7532 32.1765C18.0333 32.0366 18.147 31.6962 18.0071 31.4161C17.8672 31.136 17.5267 31.0223 17.2466 31.1622C16.491 31.6054 15.9841 32.3744 15.8747 33.2436C14.9953 32.7732 14.6666 31.0432 14.6666 29.3999V23.7332H19.1999V33.3665H17.0092ZM24.8666 33.3665V23.7332H29.3999V33.3665H24.8666ZM30.5333 33.3665V23.7332H31.6666V33.3665H30.5333ZM31.6666 20.3332H24.8666V16.3665C24.8666 14.8017 23.5981 13.5332 22.0333 13.5332C20.4685 13.5332 19.1999 14.8017 19.1999 16.3665V20.3332H16.1632C16.2952 19.9698 16.3641 19.5865 16.3666 19.1999C16.3662 19.0521 16.3564 18.9044 16.3371 18.7579C17.2687 18.2342 17.8987 17.3018 18.0369 16.2421C18.1751 15.1824 17.8054 14.1196 17.0392 13.3745C17.3404 12.9169 17.5006 12.381 17.4999 11.8332C17.4909 10.6807 16.789 9.64702 15.7212 9.2135C15.7353 9.14323 15.7433 9.07126 15.754 8.99986H31.6666V20.3332ZM29.9269 2.19986C30.1164 2.19983 30.2933 2.29446 30.3984 2.45203L33.2714 6.76153C33.3332 6.8548 33.3663 6.96414 33.3666 7.07603V7.29986C33.3666 7.61282 33.1129 7.86653 32.7999 7.86653H15.7586C15.598 6.78647 15.0013 5.8196 14.1079 5.19186L16.1025 2.19986H29.9269ZM6.10313 17.2358C6.02403 17.1079 5.89736 17.0168 5.75102 16.9823C5.60467 16.9479 5.45064 16.973 5.32283 17.0522C4.5749 17.5712 3.60073 17.6323 2.79379 17.2109C2.07744 16.8104 1.63354 16.0539 1.63326 15.2332C1.63 14.4956 1.99034 13.8037 2.59659 13.3836C2.93008 13.6809 3.32524 13.9008 3.75373 14.0273C4.05386 14.1161 4.36909 13.9447 4.45781 13.6445C4.54653 13.3444 4.37516 13.0292 4.07503 12.9405C3.31387 12.7375 2.77975 12.0542 2.76659 11.2665C2.76392 10.4876 3.2952 9.8083 4.05179 9.6232C4.24858 9.57511 4.40476 9.4257 4.46151 9.23124C4.51826 9.03678 4.46696 8.82682 4.32693 8.68044C4.18689 8.53407 3.97941 8.47351 3.78263 8.5216C3.54324 8.58315 3.31306 8.67614 3.09809 8.79813C2.08728 7.85473 1.90655 6.31887 2.67075 5.1666C3.43496 4.01432 4.92014 3.58332 6.18246 4.1475C6.21551 4.57734 6.32288 4.99819 6.49979 5.39133C6.59074 5.59603 6.79373 5.72796 7.01773 5.72793C7.097 5.72756 7.17533 5.71077 7.24779 5.67863C7.38511 5.61742 7.49248 5.50415 7.54625 5.36375C7.60003 5.22336 7.59581 5.06735 7.53453 4.93006C7.18567 4.2036 7.23513 3.34875 7.66543 2.66736C8.03997 2.08911 8.65756 1.713 9.34321 1.64561C10.0289 1.57821 10.7079 1.82687 11.1878 2.32113C11.0051 2.59529 10.8722 2.89953 10.7951 3.21986C10.7243 3.52397 10.9128 3.82806 11.2167 3.89986C11.2596 3.90998 11.3035 3.91511 11.3476 3.91516C11.6103 3.91479 11.8383 3.73395 11.8984 3.47826C12.0796 2.72366 12.7572 2.19372 13.5333 2.19986C13.8896 2.20065 14.2366 2.31433 14.5244 2.52456L13.0856 4.683C12.8024 4.58409 12.5089 4.51792 12.2107 4.4858C12.0091 4.46646 11.8126 4.55612 11.6951 4.72099C11.5775 4.88586 11.5569 5.1009 11.6409 5.2851C11.725 5.46931 11.9009 5.59469 12.1024 5.61403C12.4363 5.6442 12.7618 5.73584 13.0624 5.88433C14.0411 6.35661 14.6641 7.34646 14.6666 8.4332C14.6653 9.18101 14.3613 9.89644 13.824 10.4165C13.6119 10.6375 13.6139 10.987 13.8284 11.2057C14.0429 11.4243 14.3923 11.4329 14.6173 11.2252C14.9022 10.946 15.1437 10.6257 15.3336 10.2749C15.9565 10.5435 16.3618 11.1548 16.3666 11.8332C16.3661 12.1492 16.2761 12.4587 16.1071 12.7257C15.8601 12.6058 15.5991 12.517 15.3302 12.4616C15.1302 12.4208 14.9238 12.4905 14.7896 12.6443C14.6555 12.7981 14.6144 13.0122 14.6821 13.2047C14.7497 13.3972 14.9157 13.5385 15.1165 13.5746C16.2595 13.8065 17.0408 14.8667 16.9237 16.0271C16.8067 17.1875 15.8294 18.0704 14.6632 18.0694C14.3502 18.0694 14.0965 18.3231 14.0965 18.636C14.0965 18.949 14.3502 19.2027 14.6632 19.2027C14.8521 19.2011 15.0405 19.1838 15.2265 19.1511C15.2265 19.1676 15.2299 19.1834 15.2299 19.1999C15.2278 20.0999 14.6966 20.9146 13.8738 21.2795C13.3942 21.4832 12.8602 21.5205 12.3569 21.3855C12.1618 21.3307 11.9524 21.3842 11.8076 21.5258C11.6627 21.6674 11.6044 21.8756 11.6548 22.0718C11.7051 22.268 11.8563 22.4225 12.0514 22.4769C12.3494 22.5595 12.6574 22.6009 12.9666 22.5999C13.1566 22.5985 13.3461 22.5815 13.5333 22.5489V25.1227C12.7472 25.5675 11.7738 25.5126 11.0428 24.9821C10.3082 24.4393 9.97961 23.5031 10.2137 22.6203C10.292 22.317 10.1096 22.0077 9.80629 21.9295C9.50303 21.8513 9.19377 22.0337 9.11553 22.3369C9.05438 22.585 9.02094 22.8391 9.01579 23.0946C7.84101 22.8055 7.10588 21.6383 7.35263 20.4539C7.3915 20.2552 7.32141 20.0508 7.16876 19.9178C7.01611 19.7848 6.80409 19.7433 6.61258 19.809C6.42106 19.8747 6.27913 20.0376 6.24026 20.2363C6.20687 20.4162 6.18792 20.5985 6.18359 20.7814C5.99784 20.856 5.80006 20.8961 5.59993 20.8999C4.66104 20.8999 3.89993 20.1387 3.89993 19.1999C3.90333 19.0008 3.94288 18.804 4.01666 18.619C4.69234 18.5866 5.34794 18.3788 5.91896 18.0161C6.04691 17.9371 6.13821 17.8105 6.17275 17.6641C6.20729 17.5178 6.18225 17.3637 6.10313 17.2358Z" fill="#616161"/>
<path d="M9.56667 18.0665C9.87963 18.0665 10.1333 17.8128 10.1333 17.4998C10.1333 17.1868 10.387 16.9331 10.7 16.9331C11.013 16.9331 11.2667 16.6794 11.2667 16.3665C11.2667 16.0535 11.013 15.7998 10.7 15.7998C9.76112 15.7998 9 16.5609 9 17.4998C9 17.8128 9.25371 18.0665 9.56667 18.0665Z" fill="#616161"/>
<path d="M7.30007 11.2667C7.61303 11.2667 7.86673 11.013 7.86673 10.7C7.86673 10.387 8.12044 10.1333 8.4334 10.1333C8.74636 10.1333 9.00007 9.87963 9.00007 9.56667C9.00007 9.25371 8.74636 9 8.4334 9C7.49451 9 6.7334 9.76112 6.7334 10.7C6.7334 11.013 6.9871 11.2667 7.30007 11.2667Z" fill="#616161"/>
<path d="M11.8333 12.3999C12.1462 12.3999 12.3999 12.6536 12.3999 12.9666C12.3999 13.2796 12.6536 13.5333 12.9666 13.5333C13.2796 13.5333 13.5333 13.2796 13.5333 12.9666C13.5333 12.0277 12.7722 11.2666 11.8333 11.2666C11.5203 11.2666 11.2666 11.5203 11.2666 11.8333C11.2666 12.1462 11.5203 12.3999 11.8333 12.3999Z" fill="#616161"/>
<path d="M27.1333 14.6666H29.4C30.0259 14.6666 30.5333 14.1592 30.5333 13.5333V11.2666C30.5333 10.6407 30.0259 10.1333 29.4 10.1333H27.1333C26.5074 10.1333 26 10.6407 26 11.2666V13.5333C26 14.1592 26.5074 14.6666 27.1333 14.6666ZM27.1333 11.2666H29.4V13.5333H27.1333V11.2666Z" fill="#616161"/>
<path d="M16.9334 6.73343H30.5334C30.8463 6.73343 31.1 6.47973 31.1 6.16676C31.1 5.8538 30.8463 5.6001 30.5334 5.6001H16.9334C16.6204 5.6001 16.3667 5.8538 16.3667 6.16676C16.3667 6.47973 16.6204 6.73343 16.9334 6.73343Z" fill="#616161"/>
<path d="M2.2 34.5C2.51296 34.5 2.76667 34.2463 2.76667 33.9334C2.76667 33.6204 2.51296 33.3667 2.2 33.3667H1.06667C0.753705 33.3667 0.5 33.6204 0.5 33.9334C0.5 34.2463 0.753705 34.5 1.06667 34.5H2.2Z" fill="#616161"/>
</g>
<defs>
<clipPath id="clip0_23_2154">
<rect width="34" height="34" fill="white" transform="translate(0.5 0.5)"/>
</clipPath>
</defs>
</svg>
