<svg width="34" height="35" viewBox="0 0 34 35" fill="none" xmlns="http://www.w3.org/2000/svg">
<g clip-path="url(#clip0_23_2002)">
<path d="M22.9694 9.19816C22.5734 9.19816 22.1469 9.27121 21.8072 9.39022C21.0886 7.73172 19.8383 6.59933 18.0856 6.0226C15.6736 5.22898 13.8508 5.5708 12.6861 6.05149C14.4372 4.18784 16.6523 4.24071 17.9942 4.50934C18.3318 4.57682 18.6671 4.44652 18.87 4.16925C19.0735 3.89111 19.096 3.53056 18.929 3.22845C18.423 2.31323 17.514 1.13449 16.0574 0.716687C14.909 0.387483 13.6407 0.601463 12.2876 1.35311C10.6446 2.26595 9.80958 3.73538 9.87288 5.60248C9.8754 5.67647 9.87952 5.74939 9.88463 5.82164C9.33806 5.3984 8.60972 5.00159 7.64661 4.75181C7.3801 4.68268 7.10848 4.84266 7.03941 5.10891C6.97034 5.37522 7.13019 5.64705 7.39651 5.71611C8.60773 6.03018 9.36522 6.60703 9.82114 7.10884C8.11927 6.89346 6.37688 7.48931 4.62547 8.88994C3.02215 10.1721 1.76676 11.8708 1.07329 12.9232C0.815148 10.8035 1.18008 9.08791 2.15986 7.82058C2.92406 6.8321 3.80402 6.49234 3.81046 6.48988C3.97583 6.42951 4.09709 6.28626 4.1293 6.11312C4.16151 5.93999 4.09995 5.76267 3.96732 5.64685L3.90384 5.59139C4.40518 5.52432 4.89211 5.48859 5.35341 5.485C5.62855 5.48287 5.84984 5.25814 5.84765 4.98306C5.84552 4.70791 5.62138 4.48444 5.3457 4.48882C4.79216 4.49307 4.20707 4.53963 3.60684 4.62702C3.24476 4.67975 2.95561 4.93046 2.8522 5.28145C2.79456 5.47736 2.80239 5.67839 2.86861 5.8595C2.46681 6.10522 1.92084 6.51698 1.41305 7.15858C0.564376 8.23067 -0.346663 10.1836 0.132566 13.3991C0.186625 13.7622 0.453933 14.0461 0.813354 14.1225C0.875649 14.1357 0.937877 14.1421 0.999308 14.1421C1.29404 14.1421 1.56972 13.994 1.73356 13.7364C2.34143 12.7804 3.60638 10.9805 5.24761 9.66802C6.60202 8.58498 7.93172 8.05063 9.21819 8.06862C8.54663 8.42791 7.71947 8.95403 6.88234 9.69479C5.12309 11.2516 2.99034 14.0893 2.82059 18.7671C2.80883 19.0914 2.97646 19.3935 3.25798 19.5555C3.39353 19.6335 3.54388 19.6724 3.69397 19.6724C3.85562 19.6724 4.01693 19.6273 4.15919 19.5376C4.83493 19.1117 6.07424 18.1642 7.26753 16.3841C7.40972 16.5521 7.60916 16.6595 7.83343 16.6853C8.11043 16.7169 8.37867 16.6186 8.56941 16.4151C8.77402 16.1967 9.06145 15.867 9.37645 15.438C9.06278 20.132 9.05966 27.4348 11.0947 34.0811C11.1603 34.2956 11.3576 34.4336 11.5708 34.4336C11.6191 34.4336 11.6682 34.4265 11.7167 34.4116C11.9798 34.3311 12.1277 34.0526 12.0472 33.7895C11.799 32.9791 11.5821 32.1582 11.3926 31.3332H11.9305C12.2056 31.3332 12.4285 31.1103 12.4285 30.8351C12.4285 30.56 12.2056 30.337 11.9305 30.337H11.1777C10.821 28.5765 10.5838 26.8088 10.4347 25.0936H11.4404C11.7155 25.0936 11.9385 24.8707 11.9385 24.5955C11.9385 24.3204 11.7155 24.0974 11.4404 24.0974H10.3573C10.3111 23.4217 10.2777 22.7562 10.2555 22.1049H10.9119C11.187 22.1049 11.41 21.8819 11.41 21.6068C11.41 21.3316 11.187 21.1087 10.9119 21.1087H10.2296C10.176 18.1041 10.3465 15.3769 10.5277 13.4963C10.6544 13.2237 10.7747 12.9364 10.8841 12.6342C11.0606 13.1235 11.2655 13.5756 11.4828 13.9878C11.5385 15.454 11.6342 16.8537 11.7623 18.1869H11.2481C10.9729 18.1869 10.75 18.4098 10.75 18.685C10.75 18.9601 10.9729 19.1831 11.2481 19.1831H11.8655C12.1774 21.9981 12.632 24.5019 13.1524 26.6954H11.9304C11.6552 26.6954 11.4323 26.9183 11.4323 27.1935C11.4323 27.4686 11.6552 27.6916 11.9304 27.6916H13.3984C14.0743 30.3233 14.8344 32.4676 15.5256 34.1269C15.6052 34.3183 15.7904 34.4336 15.9856 34.4336C16.0494 34.4336 16.1143 34.4213 16.1769 34.3952C16.4309 34.2894 16.5509 33.9978 16.4451 33.7439C14.9311 30.1093 13.0798 24.097 12.563 15.6602C12.8019 15.9676 13.0237 16.2205 13.2061 16.4151C13.3968 16.6186 13.665 16.7171 13.942 16.6854C14.1663 16.6597 14.3657 16.5523 14.5079 16.3843C14.942 17.0326 15.416 17.6205 15.9228 18.1413C15.6757 19.2343 15.6871 20.2911 15.7377 20.97C15.7636 21.3166 16.008 21.604 16.346 21.6852C16.4086 21.7003 16.4715 21.7075 16.5337 21.7075C16.8073 21.7075 17.066 21.5663 17.2131 21.3242C17.9137 20.1707 19.6394 17.8244 22.5232 16.8709C22.3434 17.0083 22.1607 17.1574 21.9775 17.3195C20.5623 18.5717 18.8469 20.8535 18.7105 24.6125C18.6998 24.9084 18.8527 25.184 19.1095 25.3318C19.2331 25.4029 19.3703 25.4384 19.5073 25.4384C19.6548 25.4384 19.802 25.3973 19.9318 25.3154C20.4637 24.98 21.4284 24.2445 22.3673 22.8772C22.486 22.9772 22.6331 23.0422 22.7903 23.0602C23.039 23.0889 23.2903 22.9966 23.4618 22.8137C23.5553 22.7138 23.6624 22.5937 23.7771 22.4565C23.7172 23.3545 23.6373 24.2413 23.5376 25.1072C23.5061 25.3804 23.7022 25.6275 23.9755 25.659C23.9948 25.6612 24.014 25.6623 24.0331 25.6623C24.2827 25.6623 24.4981 25.4751 24.5273 25.2211C24.6907 23.8013 24.8023 22.3272 24.8595 20.8384C24.9928 20.5839 25.1201 20.3108 25.2358 20.0199C25.2922 20.1615 25.3512 20.2989 25.4124 20.4319C25.5381 21.7183 25.6676 23.5795 25.6601 25.7368H25.5069C25.2318 25.7368 25.0088 25.9597 25.0088 26.2349C25.0088 26.51 25.2318 26.733 25.5069 26.733H25.6468C25.6389 27.0723 25.6275 27.4174 25.6118 27.7675H25.1707C24.8956 27.7675 24.6726 27.9904 24.6726 28.2656C24.6726 28.5407 24.8956 28.7637 25.1707 28.7637H25.5564C25.4475 30.403 25.2428 32.1247 24.895 33.8362C24.8402 34.1058 25.0143 34.3688 25.2839 34.4235C25.3174 34.4303 25.3507 34.4336 25.3836 34.4336C25.6155 34.4336 25.8232 34.2707 25.8712 34.0345C26.7522 29.6985 26.7387 25.3091 26.5576 22.2939C26.7299 22.5115 26.8844 22.6862 27.0038 22.8137C27.1752 22.9966 27.4264 23.0889 27.6753 23.0602C27.8325 23.0422 27.9796 22.9772 28.0983 22.8772C29.0372 24.2445 30.0019 24.98 30.5338 25.3153C30.6636 25.3972 30.8108 25.4384 30.9583 25.4384C31.0953 25.4383 31.2325 25.4029 31.3561 25.3318C31.6129 25.184 31.7658 24.9084 31.7551 24.6125C31.6187 20.8534 29.9032 18.5717 28.4881 17.3195C27.9638 16.8555 27.4439 16.4962 26.9839 16.2231C27.8533 16.315 28.748 16.7256 29.6585 17.4538C30.9532 18.4893 31.9525 19.9115 32.433 20.6671C32.5824 20.9019 32.8336 21.037 33.1024 21.037C33.1584 21.037 33.2152 21.0311 33.2719 21.0191C33.5999 20.9494 33.8439 20.6901 33.8933 20.3587C34.2801 17.7636 33.5412 16.1828 32.8533 15.3138C32.4306 14.7798 31.9736 14.4405 31.6427 14.2414C31.6538 14.1233 31.6419 14.0014 31.6054 13.8815C31.4981 13.5286 31.2043 13.2804 30.8387 13.2337C29.0307 13.0028 27.7364 13.2778 26.8244 13.7106C26.9928 12.5625 26.6327 11.4962 25.7613 10.5917C24.8875 9.68429 23.9481 9.21543 22.9694 9.19816ZM22.4764 12.3896C23.2223 12.7921 23.9381 13.4662 24.3717 14.5869C24.2869 14.5362 24.1975 14.4862 24.1038 14.4377C23.6885 14.2224 23.1435 14.0146 22.4725 13.9088C22.5048 13.3882 22.5056 12.8803 22.4764 12.3896ZM22.9519 10.1941C23.6563 10.2066 24.3603 10.5728 25.0441 11.2827C26.2281 12.5118 25.9043 13.8459 25.4659 14.7058C24.6425 11.925 22.4478 11.1291 21.1369 10.9045C21.6035 10.5288 22.231 10.1836 22.9519 10.1941ZM17.7744 6.96891C19.2595 7.45763 20.314 8.4224 20.9137 9.83644C20.6077 10.0365 20.3433 10.2598 20.1265 10.4695C19.9002 10.6884 19.8236 11.0088 19.9269 11.3057C20.0299 11.6019 20.2879 11.8052 20.6002 11.8363C20.8534 11.8615 21.1407 11.9074 21.4436 11.9867C21.5059 12.5733 21.5181 13.1934 21.4787 13.8368C21.4018 13.8375 21.3236 13.8396 21.2443 13.8432C19.8896 11.6454 17.0047 8.14832 12.1096 7.48885C13.0927 6.82108 14.9728 6.04724 17.7744 6.96891ZM12.7715 2.22404C13.5623 1.78466 14.3025 1.56404 14.9821 1.56404C15.2592 1.56404 15.5264 1.60076 15.7827 1.67428C16.8004 1.96623 17.4952 2.77772 17.9261 3.4846C16.3247 3.22214 13.0976 3.20687 11.0063 6.62921C10.7196 5.40597 10.6544 3.40013 12.7715 2.22404ZM7.95503 15.6113L7.70785 15.1842C7.61918 15.0309 7.45575 14.9363 7.27869 14.9356C7.27803 14.9356 7.27736 14.9356 7.27677 14.9356C7.10044 14.9356 6.9372 15.0288 6.84761 15.1807C5.7455 17.0514 4.54763 18.0717 3.82653 18.5644C3.99947 15.2184 5.23812 12.4959 7.51014 10.4694C8.58249 9.51302 9.65159 8.93929 10.3218 8.63724C10.274 9.32368 10.3008 9.97524 10.3827 10.589C10.0097 13.0606 8.64053 14.8499 7.95503 15.6113ZM14.9278 15.1808C14.838 15.0283 14.6734 14.9342 14.4967 14.9356C14.3197 14.9363 14.1562 15.0309 14.0676 15.1841L13.8203 15.6114C12.8675 14.5563 11.0357 12.0439 11.3252 8.57933C12.1053 8.91624 13.5719 9.68084 14.9262 11.1108C15.1154 11.3107 15.4307 11.319 15.6304 11.1299C15.8302 10.9408 15.8387 10.6256 15.6495 10.4258C15.0844 9.82901 14.5032 9.33975 13.952 8.94108C17.0312 9.98873 19.0304 12.2805 20.1498 13.9794C19.9545 14.0187 19.7538 14.0666 19.5474 14.1246C19.0444 14.2659 18.6063 14.4595 18.2239 14.6926C17.9254 13.8275 17.5368 13.008 17.063 12.2513C16.9169 12.0181 16.6095 11.9477 16.3764 12.0936C16.1433 12.2396 16.0727 12.547 16.2187 12.7802C16.7112 13.5665 17.1036 14.4282 17.3889 15.3423C16.88 15.8427 16.5189 16.4312 16.2658 17.045C15.7814 16.4924 15.3328 15.8681 14.9278 15.1808ZM16.7031 20.2766C16.6749 18.4401 17.1369 15.8364 19.8168 15.0837C20.4589 14.9033 21.0347 14.8299 21.5468 14.8299C22.656 14.8299 23.4659 15.1746 24.0024 15.5246C20.1758 15.9807 17.8076 18.653 16.7031 20.2766ZM22.9162 21.9315L22.79 21.7136C22.7013 21.5602 22.538 21.4656 22.3608 21.4649C22.3602 21.4649 22.3595 21.4649 22.3589 21.4649C22.1826 21.4649 22.0194 21.5582 21.9298 21.7101C21.1448 23.0424 20.3 23.8255 19.7271 24.2488C19.9033 21.7138 20.8706 19.6446 22.6057 18.0938C23.4361 17.3518 24.2649 16.9013 24.7938 16.6601C24.9528 19.1971 23.6698 21.0652 22.9162 21.9315ZM30.7386 24.2487C30.1658 23.8254 29.3209 23.0423 28.536 21.71C28.446 21.5576 28.284 21.4651 28.1049 21.4648C27.9278 21.4656 27.7644 21.5602 27.6757 21.7135L27.5498 21.9311C26.9898 21.2843 26.0167 19.9325 25.7372 18.1042C25.7949 17.6648 25.8168 17.2011 25.7934 16.7153C26.3134 16.9627 27.065 17.3901 27.828 18.0653C29.5832 19.6185 30.5613 21.6974 30.7386 24.2487ZM32.9723 19.6746C31.8108 17.9693 29.4841 15.2006 26.6268 15.2006C26.537 15.2006 26.4468 15.2033 26.3559 15.2089C27.0174 14.5973 28.2816 13.942 30.5808 14.2058C30.5144 14.3106 30.4885 14.4381 30.5119 14.5634C30.5441 14.7365 30.6654 14.8798 30.8308 14.9402C30.8568 14.9496 33.3092 15.8923 32.9723 19.6746Z" fill="#616161"/>
<path d="M24.2446 30.0202H23.7429C23.9272 29.1641 24.0901 28.2895 24.2307 27.3996C24.2736 27.1279 24.0882 26.8728 23.8165 26.8299C23.5446 26.787 23.2898 26.9725 23.2468 27.2441C22.8824 29.5503 22.366 31.7502 21.7121 33.7827C21.6278 34.0445 21.7718 34.3252 22.0337 34.4094C22.0844 34.4257 22.1358 34.4335 22.1864 34.4335C22.3968 34.4335 22.5924 34.299 22.6604 34.0878C22.779 33.7191 22.893 33.3448 23.0027 32.9658H24.0451C24.3203 32.9658 24.5432 32.7429 24.5432 32.4677C24.5432 32.1926 24.3203 31.9697 24.0451 31.9697H23.2775C23.3603 31.6549 23.4399 31.3371 23.5165 31.0164H24.2448C24.5199 31.0164 24.7428 30.7934 24.7428 30.5183C24.7428 30.2431 24.5198 30.0202 24.2446 30.0202Z" fill="#616161"/>
</g>
<defs>
<clipPath id="clip0_23_2002">
<rect width="34" height="34" fill="white" transform="translate(0 0.5)"/>
</clipPath>
</defs>
</svg>
