<svg width="34" height="35" viewBox="0 0 34 35" fill="none" xmlns="http://www.w3.org/2000/svg">
<path d="M30.0332 16.3669H28.8999V11.8335C28.8999 11.5615 28.7072 11.3292 28.4466 11.2782L23.2332 10.2355V9.21553L24.5876 9.62919C24.6442 9.64619 24.7009 9.65186 24.7519 9.65186C24.9956 9.65186 25.2222 9.49319 25.2959 9.24953C25.3866 8.94919 25.2166 8.63186 24.9219 8.54119L22.9216 7.92919C22.8932 7.91219 22.8649 7.89519 22.8366 7.88953L20.0032 7.03953L9.80324 3.92286C9.5029 3.83219 9.18557 4.00219 9.0949 4.29686C9.00424 4.59719 9.17424 4.91453 9.4689 5.00519L10.7666 5.40753V10.2355L5.55324 11.2782C5.29257 11.3292 5.0999 11.5615 5.0999 11.8335V16.3669H3.96657C3.6549 16.3669 3.3999 16.6219 3.3999 16.9335V30.5335C3.3999 30.8452 3.6549 31.1002 3.96657 31.1002H14.7332H19.2666H30.0332C30.3449 31.1002 30.5999 30.8452 30.5999 30.5335V16.9335C30.5999 16.6219 30.3449 16.3669 30.0332 16.3669ZM27.7666 12.2982V16.3669H23.2332V11.3915L27.7666 12.2982ZM22.0999 8.86986V10.7002V16.3669H11.8999V10.7002V5.79286L19.6689 8.12186L22.0999 8.86986ZM6.23324 12.2982L10.7666 11.3915V16.3669H6.23324V12.2982ZM15.2999 29.9669V24.3002H18.6999V29.9669H15.2999ZM29.4666 29.9669H19.8332V24.3002H20.9666C21.2782 24.3002 21.5332 24.0452 21.5332 23.7335C21.5332 23.4219 21.2782 23.1669 20.9666 23.1669H19.2666H14.7332H13.0332C12.7216 23.1669 12.4666 23.4219 12.4666 23.7335C12.4666 24.0452 12.7216 24.3002 13.0332 24.3002H14.1666V29.9669H4.53324V17.5002H5.66657H11.3332H22.6666H28.3332H29.4666V29.9669Z" fill="#222222"/>
<path d="M26.6332 19.7666H23.2332C22.9215 19.7666 22.6665 20.0216 22.6665 20.3333V23.7333C22.6665 24.0449 22.9215 24.2999 23.2332 24.2999H26.6332C26.9448 24.2999 27.1998 24.0449 27.1998 23.7333V20.3333C27.1998 20.0216 26.9448 19.7666 26.6332 19.7666ZM26.0665 23.1666H23.7998V20.8999H26.0665V23.1666Z" fill="#222222"/>
<path d="M10.767 19.7666H7.36696C7.05529 19.7666 6.80029 20.0216 6.80029 20.3333V23.7333C6.80029 24.0449 7.05529 24.2999 7.36696 24.2999H10.767C11.0786 24.2999 11.3336 24.0449 11.3336 23.7333V20.3333C11.3336 20.0216 11.0786 19.7666 10.767 19.7666ZM10.2003 23.1666H7.93363V20.8999H10.2003V23.1666Z" fill="#222222"/>
<path d="M14.1668 14.6666H19.8334C20.1451 14.6666 20.4001 14.4116 20.4001 14.1V10.7C20.4001 10.3883 20.1451 10.1333 19.8334 10.1333H14.1668C13.8551 10.1333 13.6001 10.3883 13.6001 10.7V14.1C13.6001 14.4116 13.8551 14.6666 14.1668 14.6666ZM19.2668 13.5333H17.5668V11.2666H19.2668V13.5333ZM14.7334 11.2666H16.4334V13.5333H14.7334V11.2666Z" fill="#222222"/>
</svg>
